<svg width="1517" height="1719" xmlns="http://www.w3.org/2000/svg" xmlns:xlink="http://www.w3.org/1999/xlink" overflow="hidden"><defs><clipPath id="clip0"><rect x="660" y="90" width="1517" height="1719"/></clipPath><clipPath id="clip1"><rect x="660" y="90" width="1517" height="1511"/></clipPath><clipPath id="clip2"><rect x="660" y="90" width="1517" height="1511"/></clipPath><clipPath id="clip3"><rect x="660" y="90" width="14485" height="1511"/></clipPath><clipPath id="clip4"><rect x="1138" y="1695" width="493" height="115"/></clipPath><clipPath id="clip5"><rect x="1138" y="1695" width="493" height="115"/></clipPath><clipPath id="clip6"><rect x="1029" y="1695" width="1088" height="115"/></clipPath></defs><g clip-path="url(#clip0)" transform="translate(-660 -90)"><g clip-path="url(#clip1)"><g clip-path="url(#clip2)"><g clip-path="url(#clip3)"><path d="M1313.01 552.958C1286.43 552.958 1264.89 574.502 1264.89 601.078 1264.89 997.055 943.886 1318.06 547.909 1318.06 521.333 1318.06 499.789 1339.6 499.789 1366.18 499.789 1392.75 521.333 1414.3 547.909 1414.3 997.036 1414.3 1361.13 1050.21 1361.13 601.078 1361.13 574.502 1339.58 552.958 1313.01 552.958Z" fill="#00A3E0" transform="matrix(1.00011 0 0 1 660 90.0001)"/><path d="M1022.58 861.338C1068.85 785.849 1113.6 685.195 1104.8 544.283 1086.56 252.389 822.182 30.9522 572.537 54.9498 474.806 64.3445 374.454 144.007 383.37 286.698 387.245 348.706 417.594 385.303 466.918 413.44 513.864 440.222 574.179 457.188 642.554 476.418 725.145 499.648 820.949 525.742 894.581 580.004 982.829 645.038 1043.16 720.425 1022.58 861.338Z" fill="#B9D9EB" transform="matrix(1.00011 0 0 1 660 90.0001)"/><path d="M83.3395 350.915C37.0643 426.405-7.68837 527.058 1.1164 667.971 19.3551 959.865 283.733 1181.3 533.379 1157.3 631.11 1147.91 731.461 1068.25 722.546 925.556 718.671 863.548 688.32 826.95 638.998 798.813 592.052 772.031 531.737 755.066 463.362 735.836 380.771 712.605 284.967 686.512 211.335 632.25 123.086 567.216 62.759 491.828 83.3395 350.915Z" fill="#00A3E0" transform="matrix(1.00011 0 0 1 660 90.0001)"/><path d="M7709.51 648.662 7709.51 1137.82 7900.92 1137.82 7900.92 606.127C7900.92 508.141 7881.78 434.117 7843.47 383.904 7805.17 333.204 7747.41 308.38 7672.29 308.38 7590.79 308.38 7525.48 356.037 7486.2 435.986L7475.56 435.986C7478.46 394.708 7481.09 371.06 7483.01 353.793 7484.99 335.986 7486.2 324.963 7486.2 308.38L7486.2 0 7294.79 0 7294.79 1137.82 7496.83 1137.82 7496.83 744.366C7496.83 656.129 7499.79 590.846 7517.95 544.047 7536.11 496.758 7567.78 473.115 7612.95 473.115 7673.33 473.115 7709.51 529.225 7709.51 648.662ZM4930.94 1078.88C4982.66 1025.41 5008.52 948.399 5008.52 847.839 5008.52 785.049 4994.36 729.128 4966.01 680.074 4938.15 631.021 4888.68 582.949 4817.56 535.857 4764.84 501.52 4727.79 470.861 4706.39 443.883 4685.51 416.902 4675.07 385.263 4675.07 348.963 4675.07 312.172 4683.77 283.231 4701.18 262.138 4719.09 240.554 4744.44 229.762 4777.28 229.762 4807.12 229.762 4834.96 235.158 4860.82 245.949 4887.17 256.743 4912.29 269.005 4936.17 282.74L5003.29 122.335C4926.22 76.2242 4845.91 53.169 4762.35 53.169 4674.81 53.169 4604.95 80.1485 4552.74 134.108 4501.01 188.067 4475.15 261.158 4475.15 353.378 4475.15 401.449 4481.62 443.636 4494.55 479.935 4507.97 516.235 4526.62 549.102 4550.5 578.534 4574.85 607.475 4610.41 637.89 4657.16 669.774 4710.88 706.074 4749.42 739.185 4772.79 769.107 4796.16 798.539 4807.86 831.161 4807.86 866.97 4807.86 903.269 4797.91 931.966 4778.02 953.059 4758.63 974.152 4729.53 984.699 4690.74 984.699 4622.6 984.699 4547.76 958.454 4466.2 905.968L4466.2 1103.9C4532.83 1140.69 4613.65 1159.08 4708.65 1159.08 4805.61 1159.08 4879.72 1132.35 4930.94 1078.88ZM5139.83 1050.08C5199.5 1122.75 5280.87 1159.08 5383.94 1159.08 5472.22 1159.08 5547.91 1140.18 5611.03 1102.37L5611.03 941.068C5543.98 980.841 5478.39 1000.73 5414.26 1000.73 5363.97 1000.73 5324.52 983.05 5295.91 947.697 5267.31 911.853 5254.59 860.064 5253.1 786.901L5646.55 786.901 5646.55 679.596C5646.55 562.241 5620.67 471.156 5568.88 406.341 5517.09 341.035 5446.34 308.38 5356.57 308.38 5260.39 308.38 5185.45 346.434 5131.68 422.545 5077.94 498.653 5051.06 604.47 5051.06 739.994 5051.06 873.552 5080.64 976.913 5139.83 1050.08ZM5285.55 504.3C5303.8 474.348 5326.98 459.372 5355.1 459.372 5385.17 459.372 5408.84 474.838 5426.11 505.773 5443.36 536.707 5454.16 588.758 5455.14 648.662L5253.1 648.662C5256.06 586.301 5267.31 533.762 5285.55 504.3ZM6125.07 1137.82 6093.17 1031.48 6082.54 1031.48C6053.23 1079.52 6025.01 1113.74 5993.72 1131.88 5962.42 1150.02 5922.9 1159.08 5875.22 1159.08 5814.1 1159.08 5765.9 1136.54 5730.62 1091.44 5695.85 1046.34 5678.45 983.601 5678.45 903.212 5678.45 816.94 5702.29 752.971 5750 711.306 5798.19 669.151 5869.99 645.867 5965.39 641.457L6075.69 637.046 6075.69 578.224C6075.69 501.756 6042.15 463.521 5975.07 463.521 5925.39 463.521 5868.24 482.639 5803.65 520.873L5735.09 385.584C5817.56 334.114 5905.89 308.38 6002.78 308.38 6090.72 308.38 6158.93 333.38 6204.63 383.378 6250.85 432.885 6273.94 503.226 6273.94 594.4L6273.94 1137.82 6125.07 1137.82ZM5956.44 1006.15C5992.72 1006.15 6021.54 990.218 6042.89 958.357 6064.76 926.004 6075.69 883.114 6075.69 829.685L6075.69 760.57 6014.59 763.511C5969.37 765.961 5936.07 778.707 5914.71 801.744 5893.85 824.783 5883.41 859.096 5883.41 904.681 5883.41 972.327 5907.76 1006.15 5956.44 1006.15ZM6763.1 324.331C6740.34 316.994 6706.46 308.38 6682.75 308.38 6649.34 308.38 6620.03 319.384 6594.85 341.394 6569.67 363.404 6550.47 384.631 6529.16 435.986L6518.52 435.986 6486.62 329.648 6337.75 329.648 6337.75 1137.82 6539 1137.82 6539 712.465C6539 641.057 6543.53 594.989 6568.71 557.817 6593.89 520.157 6629.96 501.326 6676.92 501.326 6698.72 501.326 6717.65 505.531 6731.2 510.423L6763.1 324.331ZM7060.85 1159.08C6963.93 1159.08 6889.73 1126.72 6839.09 1055.52 6788.43 984.316 6763.1 879.728 6763.1 741.75 6763.1 597.388 6786.96 489.608 6834.69 418.408 6882.92 347.209 6954.87 308.38 7055.21 308.38 7085.39 308.38 7119.37 316.028 7152.49 324.867 7185.6 333.706 7225.95 344.854 7252.25 361.549L7186.09 515.631C7145.68 491.571 7109.87 479.542 7078.71 479.542 7037.3 479.542 7007.36 501.392 6988.83 545.093 6970.82 588.305 6961.82 653.364 6961.82 740.276 6961.82 825.224 6970.82 888.812 6988.83 931.041 7006.87 972.778 7036.32 993.646 7077.24 993.646 7125.95 993.646 7176.84 976.46 7229.92 942.089L7229.92 1114.44C7178.8 1146.36 7122.69 1159.08 7060.85 1159.08Z" fill="#B9D9EB" fill-rule="evenodd" transform="matrix(1.00011 0 0 1 660 90.0001)"/><path d="M2292.16 1015.79C2359.13 920.266 2392.61 783.588 2392.61 605.759 2392.61 427.932 2359.36 291.498 2292.9 196.46 2226.42 100.933 2130.89 53.169 2006.32 53.169 1880.26 53.169 1783.75 100.688 1716.79 195.726 1649.82 290.273 1616.34 426.462 1616.34 604.289 1616.34 783.588 1649.82 921 1716.79 1016.53 1783.75 1111.57 1879.77 1159.08 2004.84 1159.08 2129.42 1159.08 2225.19 1111.32 2292.16 1015.79ZM1868.2 885.728C1837.18 821.553 1821.67 728.23 1821.67 605.759 1821.67 482.798 1837.18 389.476 1868.2 325.79 1899.22 261.615 1945.26 229.529 2006.32 229.529 2126.46 229.529 2186.54 354.937 2186.54 605.759 2186.54 856.581 2125.97 981.991 2004.84 981.991 1944.77 981.991 1899.22 949.903 1868.2 885.728ZM2726.21 1137.77C2753.5 1153.53 2782.87 1159.08 2817.96 1159.08 2893.03 1159.08 2954.07 1123.49 2997.46 1047.67 3040.84 971.845 3062.54 867.216 3062.54 733.786 3062.54 598.383 3041.57 493.757 2999.65 419.901 2957.73 345.554 2899.73 308.38 2825.64 308.38 2748.63 308.38 2688.27 354.252 2647.82 435.986L2637.18 435.986 2605.28 329.648 2456.41 329.648 2456.41 1510 2647.82 1510 2647.82 1159.08C2647.82 1145.3 2644.99 1098.44 2637.18 1031.48L2647.82 1031.48C2663.77 1079.33 2699.39 1121.52 2726.21 1137.77ZM2677.21 529.206C2694.29 493.264 2721.81 475.293 2759.83 475.293 2795.41 475.293 2821.49 496.465 2838.08 538.808 2855.13 581.152 2863.66 645.159 2863.66 730.832 2863.66 905.128 2829.55 992.276 2761.3 992.276 2721.81 992.276 2693.54 971.598 2676.49 930.239 2659.43 888.88 2650.9 822.903 2650.9 732.307L2650.9 706.459C2651.88 623.741 2660.64 564.657 2677.21 529.206ZM3437.95 1159.08C3334.89 1159.08 3253.52 1122.75 3193.84 1050.08 3134.65 976.913 3105.07 873.552 3105.07 739.994 3105.07 604.47 3131.95 498.653 3185.7 422.545 3239.46 346.434 3314.41 308.38 3410.58 308.38 3500.33 308.38 3571.11 341.035 3622.89 406.341 3674.68 471.156 3700.56 562.241 3700.56 679.596L3700.56 786.901 3307.11 786.901C3308.6 860.064 3321.32 911.853 3349.92 947.697 3378.53 983.05 3417.98 1000.73 3468.28 1000.73 3532.4 1000.73 3597.99 980.841 3665.05 941.068L3665.05 1102.37C3601.92 1140.18 3526.23 1159.08 3437.95 1159.08ZM3409.11 459.372C3381 459.372 3357.81 474.348 3339.57 504.3 3321.32 533.762 3310.07 586.301 3307.11 648.662L3509.16 648.662C3508.18 588.758 3497.37 536.707 3480.12 505.773 3462.86 474.838 3439.18 459.372 3409.11 459.372ZM4179.08 648.662 4179.08 1137.82 4370.49 1137.82 4370.49 610.361C4370.49 511.675 4351.84 436.673 4314.52 385.356 4277.7 334.04 4221.96 308.38 4147.33 308.38 4103.16 308.38 4064.6 319.235 4031.7 340.947 3998.82 362.164 3973.45 397.991 3955.77 435.986L3945.14 435.986 3918.56 329.648 3764.37 329.648 3764.37 1137.82 3966.41 1137.82 3966.41 749.683C3966.41 649.517 3970.09 581.248 3989.74 539.308 4009.37 496.871 4040.29 475.654 4082.53 475.654 4114.43 475.654 4137.53 490.95 4151.76 521.543 4166 552.137 4179.08 588.957 4179.08 648.662Z" fill="#00A3E0" fill-rule="evenodd" transform="matrix(1.00011 0 0 1 660 90.0001)"/><path d="M8906.28 601.527C8906.28 775.919 8870.61 909.362 8799.32 1001.86 8728.5 1093.87 8626.38 1139.88 8492.92 1139.88L8234.24 1139.88 8234.24 83.4107 8516.78 83.4107C8639.62 83.4107 8735.24 128.936 8803.66 219.986 8872.06 310.554 8906.28 437.734 8906.28 601.527ZM8704.66 607.307C8704.66 371.254 8639.62 253.225 8509.55 253.225L8430.78 253.225 8430.78 967.893 8494.37 967.893C8566.17 967.893 8619.14 938.025 8653.34 878.288 8687.56 818.071 8704.66 727.743 8704.66 607.307Z" fill="#D9E1E2" transform="matrix(1.00011 0 0 1 660 90.0001)"/><path d="M9399.5 1139.88 9361.19 1030.04 9356.85 1030.04C9328.44 1077.25 9299.05 1109.77 9268.7 1127.59 9238.35 1145.42 9200.05 1154.33 9153.81 1154.33 9094.56 1154.33 9047.81 1132.17 9013.62 1087.85 8979.91 1043.53 8963.04 981.864 8963.04 902.859 8963.04 818.071 8986.16 755.204 9032.42 714.256 9079.14 672.824 9148.75 649.942 9241.24 645.606L9348.2 641.272 9348.2 583.462C9348.2 508.309 9315.68 470.733 9250.64 470.733 9202.47 470.733 9147.07 489.521 9084.44 527.096L9017.96 394.136C9097.92 343.553 9184.88 318.261 9278.82 318.261 9364.08 318.261 9428.89 342.83 9473.21 391.968 9518 440.624 9540.41 509.755 9540.41 599.359L9540.41 1139.88 9399.5 1139.88ZM9232.57 1004.02C9267.74 1004.02 9295.69 988.367 9316.4 957.055 9337.58 925.26 9348.2 883.105 9348.2 830.596L9348.2 762.671 9288.95 765.562C9245.09 767.969 9212.83 780.496 9192.12 803.137 9171.87 825.779 9161.77 859.501 9161.77 904.303 9161.77 970.783 9185.35 1004.02 9232.57 1004.02Z" fill="#D9E1E2" transform="matrix(1.00011 0 0 1 660 90.0001)"/><path d="M10083.5 904.303C10083.5 982.827 10060.4 1044.25 10014.1 1088.57 9968.36 1132.41 9900.67 1154.33 9811.07 1154.33 9731.59 1154.33 9665.83 1138.67 9613.79 1107.36L9613.79 940.434C9640.29 958.739 9671.12 973.916 9706.3 985.958 9741.95 998.002 9773.25 1004.02 9800.24 1004.02 9830.1 1004.02 9852.75 996.798 9868.15 982.346 9884.06 967.412 9892.01 947.902 9892.01 923.814 9892.01 899.245 9883.82 877.808 9867.42 859.501 9851.05 841.195 9820.96 818.794 9777.1 792.297 9718.81 757.612 9676.91 720.759 9651.37 681.737 9626.31 642.235 9613.79 595.746 9613.79 542.273 9613.79 473.864 9637.16 419.667 9683.89 379.684 9731.1 339.699 9795.65 319.705 9877.55 319.705 9948.86 319.705 10016 338.495 10079.2 376.071L10016.3 514.091C9964.75 486.15 9919.47 472.179 9880.44 472.179 9855.88 472.179 9837.33 478.683 9824.8 491.69 9812.77 504.695 9806.73 520.595 9806.73 539.383 9806.73 561.061 9814.19 580.329 9829.14 597.19 9844.56 614.051 9872.98 635.008 9914.41 660.059 9964.51 690.408 9999.67 716.182 10019.9 737.38 10040.1 758.575 10055.8 782.663 10066.9 809.641 10078 836.619 10083.5 868.173 10083.5 904.303Z" fill="#D9E1E2" transform="matrix(1.00011 0 0 1 660 90.0001)"/><path d="M10561.6 1139.88 10561.6 660.059C10561.6 542.03 10531.9 483.017 10472.7 483.017 10428.4 483.017 10397.3 506.382 10379.4 553.111 10361.6 599.359 10352.7 666.08 10352.7 753.275L10352.7 1139.88 10160.5 1139.88 10160.5 15.4847 10352.7 15.4847 10352.7 265.509C10352.7 297.787 10349.8 355.356 10344.1 438.215L10354.2 438.215C10392.7 359.21 10452 319.705 10531.9 319.705 10605.6 319.705 10661.3 344.756 10698.8 394.859 10736.4 444.478 10755.2 517.702 10755.2 614.534L10755.2 1139.88 10561.6 1139.88Z" fill="#D9E1E2" transform="matrix(1.00011 0 0 1 660 90.0001)"/><path d="M11229.7 319.705C11302.9 319.705 11360.5 356.077 11402.4 428.821 11444.3 501.565 11465.2 603.936 11465.2 735.934 11465.2 869.377 11444 972.47 11401.6 1045.21 11359.7 1117.96 11301.4 1154.33 11226.8 1154.33 11190.6 1154.33 11158.6 1146.62 11130.7 1131.2 11103.2 1115.31 11077.2 1087.61 11052.6 1048.1L11040.3 1048.1 11007.8 1139.88 10866.2 1139.88 10866.2 15.4847 11058.4 15.4847 11058.4 278.516C11058.4 289.597 11058.2 301.16 11057.7 313.204 11057.2 325.246 11054.1 367.4 11048.3 439.661L11058.4 439.661C11082 395.339 11107.5 364.267 11135 346.443 11162.5 328.619 11194 319.705 11229.7 319.705ZM11163.2 483.017C11126.6 483.017 11100.1 500.121 11083.7 534.323 11067.8 568.528 11059.4 628.745 11058.4 714.979L11058.4 734.487C11058.4 827.946 11066.6 893.705 11083 931.764 11099.8 969.82 11127 988.85 11164.6 988.85 11234 988.85 11268.7 903.58 11268.7 733.043 11268.7 566.359 11233.5 483.017 11163.2 483.017Z" fill="#D9E1E2" transform="matrix(1.00011 0 0 1 660 90.0001)"/><path d="M12152.1 735.934C12152.1 867.931 12124.2 970.783 12068.3 1044.49 12012.4 1117.72 11935.8 1154.33 11838.5 1154.33 11776.8 1154.33 11722.4 1137.47 11675.2 1103.75 11628 1070.02 11591.6 1021.61 11566.1 958.499 11540.5 894.909 11527.8 820.721 11527.8 735.934 11527.8 605.38 11555.5 503.491 11610.9 430.267 11666.3 356.56 11743.1 319.705 11841.4 319.705 11936.3 319.705 12011.7 357.283 12067.6 432.434 12123.9 507.105 12152.1 608.271 12152.1 735.934ZM11724.3 735.934C11724.3 819.758 11733.5 883.105 11751.8 925.981 11770.1 968.856 11799.5 990.294 11840 990.294 11917 990.294 11955.6 905.507 11955.6 735.934 11955.6 651.629 11946.2 588.76 11927.4 547.33 11909.1 505.418 11879.9 484.463 11840 484.463 11799.5 484.463 11770.1 505.418 11751.8 547.33 11733.5 588.76 11724.3 651.629 11724.3 735.934Z" fill="#D9E1E2" transform="matrix(1.00011 0 0 1 660 90.0001)"/><path d="M12637.4 1139.88 12599.1 1030.04 12594.8 1030.04C12566.3 1077.25 12537 1109.77 12506.6 1127.59 12476.3 1145.42 12438 1154.33 12391.7 1154.33 12332.4 1154.33 12285.7 1132.17 12251.5 1087.85 12217.8 1043.53 12200.9 981.864 12200.9 902.859 12200.9 818.071 12224.1 755.204 12270.3 714.256 12317 672.824 12386.7 649.942 12479.2 645.606L12586.1 641.272 12586.1 583.462C12586.1 508.309 12553.6 470.733 12488.5 470.733 12440.4 470.733 12385 489.521 12322.3 527.096L12255.9 394.136C12335.8 343.553 12422.8 318.261 12516.7 318.261 12602 318.261 12666.8 342.83 12711.1 391.968 12755.9 440.624 12778.3 509.755 12778.3 599.359L12778.3 1139.88 12637.4 1139.88ZM12470.5 1004.02C12505.7 1004.02 12533.6 988.367 12554.3 957.055 12575.5 925.26 12586.1 883.105 12586.1 830.596L12586.1 762.671 12526.8 765.562C12483 767.969 12450.7 780.496 12430 803.137 12409.8 825.779 12399.7 859.501 12399.7 904.303 12399.7 970.783 12423.3 1004.02 12470.5 1004.02Z" fill="#D9E1E2" transform="matrix(1.00011 0 0 1 660 90.0001)"/><path d="M13232.5 319.705C13256.1 319.705 13279.2 323.319 13301.9 330.545L13279.5 516.981C13266 512.162 13248.4 509.755 13226.7 509.755 13180 509.755 13144.1 528.302 13119.1 565.395 13094 602.009 13081.5 655.483 13081.5 725.817L13081.5 1139.88 12889.3 1139.88 12889.3 334.882 13047.5 334.882 13069.2 460.616 13075.7 460.616C13096.9 410.033 13120 373.902 13145.1 352.223 13170.1 330.545 13199.3 319.705 13232.5 319.705Z" fill="#D9E1E2" transform="matrix(1.00011 0 0 1 660 90.0001)"/><path d="M13555.2 1154.33C13481 1154.33 13422.5 1117.72 13379.6 1044.49 13336.7 971.266 13315.3 869.377 13315.3 738.824 13315.3 607.79 13336.3 505.178 13378.2 430.99 13420.1 356.8 13477.9 319.705 13551.6 319.705 13588.2 319.705 13619.8 328.859 13646.3 347.166 13673.2 364.99 13698 395.339 13720.7 438.215L13732.3 438.215C13726.5 364.99 13723.6 313.684 13723.6 284.299L13723.6 15.4847 13915.8 15.4847 13915.8 1139.88 13772.7 1139.88 13740.2 1035.1 13733.7 1035.1C13692.7 1114.58 13633.3 1154.33 13555.2 1154.33ZM13617.4 991.74C13653 991.74 13679 975.6 13695.4 943.325 13711.8 910.566 13720.7 851.31 13722.1 765.562L13722.1 740.27C13722.1 646.812 13713.7 581.052 13696.8 542.994 13680.5 504.938 13653.3 485.907 13615.2 485.907 13579.5 485.907 13553.5 507.828 13537.2 551.667 13521.2 595.023 13513.3 658.373 13513.3 741.714 13513.3 825.055 13521.5 887.682 13537.9 929.594 13554.2 971.026 13580.7 991.74 13617.4 991.74Z" fill="#D9E1E2" transform="matrix(1.00011 0 0 1 660 90.0001)"/><path d="M14465.4 904.303C14465.4 982.827 14442.3 1044.25 14396 1088.57 14350.3 1132.41 14282.6 1154.33 14193 1154.33 14113.5 1154.33 14047.7 1138.67 13995.7 1107.36L13995.7 940.434C14022.2 958.739 14053 973.916 14088.2 985.958 14123.8 998.002 14155.1 1004.02 14182.1 1004.02 14212 1004.02 14234.6 996.798 14250 982.346 14265.9 967.412 14273.9 947.902 14273.9 923.814 14273.9 899.245 14265.7 877.808 14249.3 859.501 14232.9 841.195 14202.8 818.794 14159 792.297 14100.7 757.612 14058.8 720.759 14033.3 681.737 14008.2 642.235 13995.7 595.746 13995.7 542.273 13995.7 473.864 14019.1 419.667 14065.8 379.684 14113 339.699 14177.5 319.705 14259.4 319.705 14330.7 319.705 14397.9 338.495 14461.1 376.071L14398.2 514.091C14346.6 486.15 14301.4 472.179 14262.3 472.179 14237.8 472.179 14219.2 478.683 14206.7 491.69 14194.6 504.695 14188.6 520.595 14188.6 539.383 14188.6 561.061 14196.1 580.329 14211 597.19 14226.4 614.051 14254.9 635.008 14296.3 660.059 14346.4 690.408 14381.6 716.182 14401.8 737.38 14422 758.575 14437.7 782.663 14448.8 809.641 14459.8 836.619 14465.4 868.173 14465.4 904.303Z" fill="#D9E1E2" transform="matrix(1.00011 0 0 1 660 90.0001)"/></g></g></g><g clip-path="url(#clip4)"><g clip-path="url(#clip5)"><g clip-path="url(#clip6)"><path d="M98.4944 41.4798C96.5009 41.4798 94.8848 43.0959 94.8848 45.0895 94.8848 74.7935 70.8051 98.8732 41.1011 98.8732 39.1075 98.8732 37.4914 100.489 37.4914 102.483 37.4914 104.476 39.1075 106.093 41.1011 106.093 74.7921 106.093 102.104 78.7805 102.104 45.0895 102.104 43.0959 100.488 41.4798 98.4944 41.4798Z" fill="#00A3E0" transform="matrix(1 0 0 1.00643 1029.71 1695)"/><path d="M76.708 64.6128C80.1792 58.95 83.5363 51.3995 82.8759 40.8291 81.5077 18.9328 61.6755 2.32186 42.9485 4.12202 35.6173 4.82677 28.0895 10.8026 28.7583 21.5065 29.049 26.158 31.3256 28.9033 35.0256 31.014 38.5472 33.023 43.0717 34.2957 48.2008 35.7382 54.3963 37.4808 61.583 39.4382 67.1065 43.5087 73.7264 48.3872 78.2518 54.0423 76.708 64.6128Z" fill="#B9D9EB" transform="matrix(1 0 0 1.00643 1029.71 1695)"/><path d="M6.25166 26.3237C2.78036 31.9865-0.576738 39.537 0.0837463 50.1075 1.45191 72.0037 21.2841 88.6146 40.0111 86.8145 47.3423 86.1097 54.8701 80.1339 54.2013 69.43 53.9107 64.7785 51.6339 62.0332 47.9341 59.9225 44.4124 57.9135 39.8879 56.6408 34.7588 55.1983 28.5633 53.4557 21.3766 51.4983 15.8532 47.4279 9.2332 42.5494 4.70783 36.8942 6.25166 26.3237Z" fill="#00A3E0" transform="matrix(1 0 0 1.00643 1029.71 1695)"/><path d="M578.324 48.659 578.324 85.3527 592.683 85.3527 592.683 45.4683C592.683 38.1179 591.247 32.565 588.374 28.7983 585.5 24.9951 581.167 23.133 575.532 23.133 569.419 23.133 564.519 26.7079 561.573 32.7052L560.775 32.7052C560.992 29.6088 561.19 27.8349 561.333 26.5396 561.482 25.2038 561.573 24.3769 561.573 23.133L561.573 0 547.214 0 547.214 85.3527 562.37 85.3527 562.37 55.8382C562.37 49.2191 562.592 44.322 563.955 40.8113 565.317 37.264 567.693 35.4904 571.081 35.4904 575.611 35.4904 578.324 39.6995 578.324 48.659ZM369.891 80.9317C373.771 76.9208 375.711 71.1436 375.711 63.6002 375.711 58.89 374.649 54.6951 372.522 51.0154 370.432 47.3356 366.721 43.7296 361.386 40.197 357.432 37.6212 354.652 35.3213 353.047 33.2976 351.481 31.2737 350.697 28.9003 350.697 26.1773 350.697 23.4174 351.35 21.2464 352.657 19.6641 354 18.045 355.902 17.2355 358.365 17.2355 360.603 17.2355 362.691 17.6402 364.631 18.4497 366.608 19.2594 368.492 20.1793 370.284 21.2096L375.319 9.17687C369.537 5.71791 363.513 3.98844 357.245 3.98844 350.678 3.98844 345.437 6.01229 341.521 10.06 337.641 14.1077 335.701 19.5906 335.701 26.5085 335.701 30.1145 336.186 33.2791 337.156 36.0021 338.163 38.7251 339.562 41.1906 341.353 43.3984 343.18 45.5694 345.848 47.8509 349.354 50.2427 353.384 52.9657 356.275 55.4496 358.028 57.6941 359.782 59.902 360.659 62.3491 360.659 65.0352 360.659 67.7582 359.912 69.9109 358.421 71.4932 356.966 73.0755 354.783 73.8666 351.873 73.8666 346.762 73.8666 341.148 71.8979 335.029 67.9607L335.029 82.8084C340.028 85.5682 346.09 86.9481 353.217 86.9481 360.49 86.9481 366.05 84.9427 369.891 80.9317ZM385.561 78.771C390.038 84.2224 396.142 86.9481 403.873 86.9481 410.495 86.9481 416.173 85.5299 420.908 82.6937L420.908 70.5937C415.878 73.5772 410.958 75.069 406.148 75.069 402.375 75.069 399.415 73.743 397.27 71.091 395.124 68.4021 394.17 64.5172 394.058 59.029L423.573 59.029 423.573 50.9795C423.573 42.1762 421.631 35.3435 417.746 30.4814 413.862 25.5825 408.554 23.133 401.82 23.133 394.605 23.133 388.983 25.9876 384.95 31.697 380.919 37.4062 378.902 45.344 378.902 55.5102 378.902 65.529 381.121 73.2825 385.561 78.771ZM396.493 37.8297C397.862 35.583 399.601 34.4595 401.71 34.4595 403.966 34.4595 405.741 35.6197 407.037 37.9403 408.33 40.2608 409.141 44.1653 409.214 48.659L394.058 48.659C394.28 43.981 395.124 40.0398 396.493 37.8297ZM459.469 85.3527 457.076 77.3758 456.278 77.3758C454.079 80.9793 451.962 83.5467 449.616 84.9073 447.267 86.2678 444.303 86.9481 440.726 86.9481 436.141 86.9481 432.526 85.2566 429.879 81.8738 427.271 78.4908 425.966 73.7843 425.966 67.7539 425.966 61.2823 427.754 56.4837 431.333 53.3582 434.948 50.196 440.334 48.4494 447.491 48.1185L455.764 47.7876 455.764 43.3751C455.764 37.6389 453.248 34.7708 448.216 34.7708 444.49 34.7708 440.203 36.2049 435.358 39.073L430.214 28.9244C436.401 25.0634 443.027 23.133 450.295 23.133 456.892 23.133 462.009 25.0083 465.437 28.7589 468.904 32.4726 470.636 37.7492 470.636 44.5886L470.636 85.3527 459.469 85.3527ZM446.819 75.4757C449.541 75.4757 451.702 74.2806 453.304 71.8906 454.944 69.4637 455.764 66.2463 455.764 62.2384L455.764 57.0537 451.181 57.2744C447.789 57.4582 445.291 58.4143 443.689 60.1424 442.124 61.8706 441.34 64.4446 441.34 67.8642 441.34 72.9386 443.167 75.4757 446.819 75.4757ZM507.33 24.3295C505.623 23.7791 503.082 23.133 501.303 23.133 498.796 23.133 496.598 23.9584 494.709 25.6095 492.82 27.2605 491.379 28.8529 489.781 32.7052L488.983 32.7052 486.59 24.7283 475.422 24.7283 475.422 85.3527 490.52 85.3527 490.52 53.4451C490.52 48.0885 490.859 44.6328 492.748 41.8444 494.637 39.0193 497.343 37.6067 500.866 37.6067 502.501 37.6067 503.921 37.9221 504.937 38.2891L507.33 24.3295ZM529.665 86.9481C522.395 86.9481 516.829 84.5199 513.03 79.1789 509.23 73.8379 507.33 65.9923 507.33 55.642 507.33 44.8127 509.12 36.7277 512.7 31.3867 516.318 26.0457 521.716 23.133 529.242 23.133 531.506 23.133 534.056 23.7067 536.54 24.3697 539.024 25.0327 542.05 25.869 544.024 27.1214L539.06 38.6798C536.029 36.8749 533.343 35.9726 531.005 35.9726 527.899 35.9726 525.653 37.6117 524.263 40.8898 522.912 44.1313 522.237 49.0117 522.237 55.5314 522.237 61.9037 522.912 66.6737 524.263 69.8415 525.616 72.9724 527.826 74.5378 530.895 74.5378 534.549 74.5378 538.366 73.2486 542.349 70.6703L542.349 83.599C538.513 85.9932 534.305 86.9481 529.665 86.9481Z" fill="#B9D9EB" fill-rule="evenodd" transform="matrix(1 0 0 1.00643 1029.71 1695)"/><path d="M171.945 76.1992C176.969 69.0333 179.48 58.7804 179.48 45.4407 179.48 32.1011 176.986 21.8666 172.001 14.7374 167.014 7.57142 159.847 3.98844 150.503 3.98844 141.047 3.98844 133.807 7.55304 128.784 14.6822 123.76 21.7747 121.249 31.9908 121.249 45.3304 121.249 58.7804 123.76 69.0883 128.784 76.2542 133.807 83.3835 141.01 86.9481 150.392 86.9481 159.737 86.9481 166.921 83.3652 171.945 76.1992ZM140.142 66.4424C137.815 61.6283 136.651 54.6278 136.651 45.4407 136.651 36.2168 137.815 29.2163 140.142 24.4389 142.469 19.6249 145.923 17.218 150.503 17.218 159.515 17.218 164.022 26.6254 164.022 45.4407 164.022 64.2559 159.479 73.6635 150.392 73.6635 145.886 73.6635 142.469 71.2564 140.142 66.4424ZM204.505 85.3493C206.552 86.5312 208.755 86.9481 211.387 86.9481 217.019 86.9481 221.598 84.2782 224.852 78.5902 228.107 72.9024 229.734 65.0537 229.734 55.0445 229.734 44.8874 228.161 37.0389 225.017 31.4987 221.872 25.9215 217.522 23.133 211.963 23.133 206.187 23.133 201.659 26.574 198.624 32.7052L197.827 32.7052 195.434 24.7283 184.266 24.7283 184.266 113.272 198.624 113.272 198.624 86.9481C198.624 85.9139 198.412 82.3988 197.827 77.3758L198.624 77.3758C199.821 80.9654 202.493 84.1305 204.505 85.3493ZM200.829 39.6981C202.11 37.0019 204.175 35.6538 207.027 35.6538 209.696 35.6538 211.652 37.242 212.897 40.4184 214.176 43.5948 214.816 48.3963 214.816 54.8229 214.816 67.8977 212.257 74.435 207.137 74.435 204.175 74.435 202.055 72.8839 200.775 69.7813 199.496 66.6788 198.856 61.7296 198.856 54.9336L198.856 52.9946C198.929 46.7895 199.586 42.3574 200.829 39.6981ZM257.896 86.9481C250.165 86.9481 244.061 84.2224 239.584 78.771 235.144 73.2825 232.925 65.529 232.925 55.5102 232.925 45.344 234.942 37.4062 238.973 31.697 243.006 25.9876 248.628 23.133 255.843 23.133 262.575 23.133 267.885 25.5825 271.769 30.4814 275.654 35.3435 277.596 42.1762 277.596 50.9795L277.596 59.029 248.081 59.029C248.193 64.5172 249.147 68.4021 251.293 71.091 253.438 73.743 256.398 75.069 260.171 75.069 264.981 75.069 269.901 73.5772 274.931 70.5937L274.931 82.6937C270.196 85.5299 264.518 86.9481 257.896 86.9481ZM255.733 34.4595C253.624 34.4595 251.885 35.583 250.516 37.8297 249.147 40.0398 248.303 43.981 248.081 48.659L263.237 48.659C263.164 44.1653 262.353 40.2608 261.06 37.9403 259.764 35.6197 257.988 34.4595 255.733 34.4595ZM313.492 48.659 313.492 85.3527 327.85 85.3527 327.85 45.7859C327.85 38.383 326.451 32.7568 323.651 28.9073 320.889 25.0578 316.708 23.133 311.11 23.133 307.796 23.133 304.904 23.9473 302.436 25.576 299.969 27.1675 298.066 29.8551 296.74 32.7052L295.943 32.7052 293.948 24.7283 282.382 24.7283 282.382 85.3527 297.538 85.3527 297.538 56.237C297.538 48.7231 297.814 43.602 299.288 40.4559 300.761 37.2725 303.08 35.6809 306.249 35.6809 308.642 35.6809 310.374 36.8283 311.442 39.1233 312.51 41.4182 313.492 44.1803 313.492 48.659Z" fill="#00A3E0" fill-rule="evenodd" transform="matrix(1 0 0 1.00643 1029.71 1695)"/><path d="M668.099 45.1232C668.099 58.2051 665.424 68.2153 660.076 75.1538 654.764 82.056 647.103 85.5071 637.092 85.5071L617.687 85.5071 617.687 6.25701 638.882 6.25701C648.096 6.25701 655.269 9.67202 660.402 16.5021 665.532 23.296 668.099 32.8364 668.099 45.1232ZM652.975 45.5568C652.975 27.8494 648.096 18.9955 638.339 18.9955L632.43 18.9955 632.43 72.6059 637.2 72.6059C642.586 72.6059 646.56 70.3654 649.126 65.8843 651.693 61.3671 652.975 54.5913 652.975 45.5568Z" fill="#D9E1E2" transform="matrix(1 0 0 1.00643 1029.71 1695)"/><path d="M705.098 85.5071 702.224 77.2678 701.899 77.2678C699.768 80.8092 697.563 83.2485 695.286 84.5856 693.01 85.9227 690.136 86.5913 686.668 86.5913 682.223 86.5913 678.717 84.929 676.151 81.6043 673.623 78.2796 672.357 73.6539 672.357 67.7274 672.357 61.3671 674.092 56.6512 677.562 53.5795 681.067 50.4715 686.288 48.7551 693.227 48.4298L701.25 48.1046 701.25 43.7681C701.25 38.1305 698.81 35.3118 693.932 35.3118 690.318 35.3118 686.162 36.7211 681.464 39.5398L676.477 29.5659C682.475 25.7714 688.999 23.8742 696.046 23.8742 702.441 23.8742 707.303 25.7172 710.627 29.4033 713.987 33.0532 715.669 38.239 715.669 44.9606L715.669 85.5071 705.098 85.5071ZM692.576 75.3163C695.214 75.3163 697.311 74.1418 698.865 71.7929 700.454 69.4078 701.25 66.2457 701.25 62.3067L701.25 57.2113 696.805 57.4282C693.515 57.6088 691.095 58.5484 689.541 60.2469 688.022 61.9453 687.265 64.4749 687.265 67.8358 687.265 72.8228 689.034 75.3163 692.576 75.3163Z" fill="#D9E1E2" transform="matrix(1 0 0 1.00643 1029.71 1695)"/><path d="M756.408 67.8358C756.408 73.7262 754.672 78.3338 751.204 81.6584 747.771 84.947 742.693 86.5913 735.971 86.5913 730.01 86.5913 725.077 85.4168 721.173 83.0678L721.173 70.5462C723.161 71.9193 725.474 73.0578 728.113 73.9611 730.786 74.8645 733.135 75.3163 735.159 75.3163 737.399 75.3163 739.098 74.7742 740.253 73.6902 741.447 72.5699 742.044 71.1063 742.044 69.2994 742.044 67.4564 741.429 65.8482 740.199 64.4749 738.971 63.1018 736.713 61.4214 733.424 59.4337 729.051 56.8318 725.908 54.0673 723.992 51.1401 722.112 48.1769 721.173 44.6895 721.173 40.6783 721.173 35.5466 722.926 31.4811 726.431 28.4818 729.973 25.4823 734.815 23.9825 740.959 23.9825 746.308 23.9825 751.348 25.392 756.083 28.2107L751.367 38.5643C747.5 36.4683 744.103 35.4202 741.176 35.4202 739.333 35.4202 737.942 35.9081 737.002 36.8838 736.099 37.8594 735.646 39.0521 735.646 40.4615 735.646 42.0877 736.206 43.5331 737.328 44.7979 738.484 46.0627 740.616 47.6348 743.723 49.514 747.482 51.7906 750.119 53.724 751.638 55.3141 753.155 56.9041 754.329 58.711 755.161 60.7347 755.992 62.7585 756.408 65.1255 756.408 67.8358Z" fill="#D9E1E2" transform="matrix(1 0 0 1.00643 1029.71 1695)"/><path d="M792.269 85.5071 792.269 49.514C792.269 40.6601 790.047 36.2332 785.602 36.2332 782.277 36.2332 779.946 37.9859 778.608 41.4913 777.271 44.9606 776.603 49.9656 776.603 56.5065L776.603 85.5071 762.184 85.5071 762.184 1.16158 776.603 1.16158 776.603 19.917C776.603 22.3383 776.386 26.6568 775.953 32.8724L776.711 32.8724C779.602 26.9459 784.048 23.9825 790.047 23.9825 795.575 23.9825 799.75 25.8617 802.567 29.6201 805.386 33.3423 806.797 38.8352 806.797 46.0989L806.797 85.5071 792.269 85.5071Z" fill="#D9E1E2" transform="matrix(1 0 0 1.00643 1029.71 1695)"/><path d="M842.386 23.9825C847.879 23.9825 852.198 26.7109 855.341 32.1678 858.485 37.6246 860.057 45.3039 860.057 55.2056 860.057 65.2158 858.468 72.9493 855.287 78.4061 852.144 83.8629 847.771 86.5913 842.169 86.5913 839.459 86.5913 837.056 86.013 834.96 84.8567 832.9 83.6641 830.949 81.5862 829.105 78.6229L828.184 78.6229 825.745 85.5071 815.12 85.5071 815.12 1.16158 829.539 1.16158 829.539 20.8927C829.539 21.7239 829.521 22.5913 829.484 23.4948 829.449 24.3981 829.213 27.5603 828.781 32.9809L829.539 32.9809C831.31 29.6562 833.226 27.3253 835.285 25.9882 837.345 24.6511 839.713 23.9825 842.386 23.9825ZM837.399 36.2332C834.652 36.2332 832.666 37.5163 831.436 40.0819 830.244 42.6478 829.612 47.1649 829.539 53.6337L829.539 55.0972C829.539 62.1079 830.153 67.0408 831.381 69.8957 832.647 72.7505 834.689 74.178 837.508 74.178 842.712 74.178 845.314 67.7815 845.314 54.9888 845.314 42.4851 842.675 36.2332 837.399 36.2332Z" fill="#D9E1E2" transform="matrix(1 0 0 1.00643 1029.71 1695)"/><path d="M911.584 55.2056C911.584 65.1074 909.488 72.8228 905.297 78.3519 901.104 83.8449 895.358 86.5913 888.059 86.5913 883.432 86.5913 879.35 85.3265 875.808 82.7969 872.266 80.2673 869.538 76.6354 867.622 71.9013 865.708 67.1311 864.75 61.5659 864.75 55.2056 864.75 45.4123 866.828 37.7691 870.984 32.2762 875.139 26.7471 880.904 23.9825 888.276 23.9825 895.394 23.9825 901.05 26.8014 905.243 32.4388 909.47 38.0402 911.584 45.6291 911.584 55.2056ZM879.493 55.2056C879.493 61.4937 880.181 66.2457 881.553 69.4619 882.926 72.6782 885.131 74.2864 888.167 74.2864 893.949 74.2864 896.84 67.9261 896.84 55.2056 896.84 48.8816 896.135 44.1655 894.726 41.0577 893.352 37.9137 891.167 36.3417 888.167 36.3417 885.131 36.3417 882.926 37.9137 881.553 41.0577 880.181 44.1655 879.493 48.8816 879.493 55.2056Z" fill="#D9E1E2" transform="matrix(1 0 0 1.00643 1029.71 1695)"/><path d="M947.988 85.5071 945.114 77.2678 944.789 77.2678C942.657 80.8092 940.453 83.2485 938.176 84.5856 935.899 85.9227 933.026 86.5913 929.556 86.5913 925.111 86.5913 921.606 84.929 919.041 81.6043 916.511 78.2796 915.246 73.6539 915.246 67.7274 915.246 61.3671 916.981 56.6512 920.45 53.5795 923.955 50.4715 929.178 48.7551 936.116 48.4298L944.138 48.1046 944.138 43.7681C944.138 38.1305 941.699 35.3118 936.82 35.3118 933.206 35.3118 929.05 36.7211 924.354 39.5398L919.366 29.5659C925.365 25.7714 931.887 23.8742 938.935 23.8742 945.331 23.8742 950.191 25.7172 953.516 29.4033 956.877 33.0532 958.557 38.239 958.557 44.9606L958.557 85.5071 947.988 85.5071ZM935.465 75.3163C938.104 75.3163 940.199 74.1418 941.753 71.7929 943.343 69.4078 944.138 66.2457 944.138 62.3067L944.138 57.2113 939.693 57.4282C936.405 57.6088 933.983 58.5484 932.429 60.2469 930.912 61.9453 930.153 64.4749 930.153 67.8358 930.153 72.8228 931.924 75.3163 935.465 75.3163Z" fill="#D9E1E2" transform="matrix(1 0 0 1.00643 1029.71 1695)"/><path d="M992.629 23.9825C994.4 23.9825 996.134 24.2536 997.834 24.7957L996.154 38.7811C995.141 38.4196 993.823 38.239 992.195 38.239 988.69 38.239 985.999 39.6303 984.12 42.4128 982.24 45.1594 981.301 49.1706 981.301 54.4467L981.301 85.5071 966.882 85.5071 966.882 25.121 978.753 25.121 980.379 34.5528 980.867 34.5528C982.457 30.7584 984.191 28.048 986.071 26.4218 987.95 24.7957 990.136 23.9825 992.629 23.9825Z" fill="#D9E1E2" transform="matrix(1 0 0 1.00643 1029.71 1695)"/><path d="M1016.84 86.5913C1011.27 86.5913 1006.88 83.8449 1003.66 78.3519 1000.45 72.859 998.84 65.2158 998.84 55.4225 998.84 45.593 1000.41 37.8956 1003.56 32.3305 1006.7 26.7652 1011.04 23.9825 1016.56 23.9825 1019.31 23.9825 1021.68 24.6692 1023.67 26.0425 1025.69 27.3795 1027.55 29.6562 1029.25 32.8724L1030.12 32.8724C1029.68 27.3795 1029.47 23.5309 1029.47 21.3265L1029.47 1.16158 1043.89 1.16158 1043.89 85.5071 1033.15 85.5071 1030.71 77.6472 1030.22 77.6472C1027.15 83.6099 1022.69 86.5913 1016.84 86.5913ZM1021.5 74.3948C1024.17 74.3948 1026.12 73.1841 1027.35 70.763 1028.58 68.3056 1029.25 63.8606 1029.36 57.4282L1029.36 55.5309C1029.36 48.5202 1028.72 43.5873 1027.46 40.7324 1026.23 37.8776 1024.19 36.4501 1021.34 36.4501 1018.66 36.4501 1016.71 38.0944 1015.48 41.383 1014.29 44.6353 1013.69 49.3875 1013.69 55.6393 1013.69 61.8911 1014.31 66.589 1015.54 69.733 1016.76 72.8409 1018.75 74.3948 1021.5 74.3948Z" fill="#D9E1E2" transform="matrix(1 0 0 1.00643 1029.71 1695)"/><path d="M1085.11 67.8358C1085.11 73.7262 1083.38 78.3338 1079.91 81.6584 1076.48 84.947 1071.4 86.5913 1064.68 86.5913 1058.71 86.5913 1053.78 85.4168 1049.88 83.0678L1049.88 70.5462C1051.87 71.9193 1054.18 73.0578 1056.82 73.9611 1059.49 74.8645 1061.84 75.3163 1063.86 75.3163 1066.1 75.3163 1067.8 74.7742 1068.96 73.6902 1070.15 72.5699 1070.75 71.1063 1070.75 69.2994 1070.75 67.4564 1070.13 65.8482 1068.9 64.4749 1067.68 63.1018 1065.42 61.4214 1062.13 59.4337 1057.76 56.8318 1054.61 54.0673 1052.7 51.1401 1050.82 48.1769 1049.88 44.6895 1049.88 40.6783 1049.88 35.5466 1051.63 31.4811 1055.14 28.4818 1058.68 25.4823 1063.52 23.9825 1069.66 23.9825 1075.01 23.9825 1080.05 25.392 1084.79 28.2107L1080.07 38.5643C1076.2 36.4683 1072.81 35.4202 1069.88 35.4202 1068.04 35.4202 1066.65 35.9081 1065.71 36.8838 1064.8 37.8594 1064.35 39.0521 1064.35 40.4615 1064.35 42.0877 1064.91 43.5331 1066.03 44.7979 1067.19 46.0627 1069.32 47.6348 1072.43 49.514 1076.19 51.7906 1078.82 53.724 1080.34 55.3141 1081.86 56.9041 1083.03 58.711 1083.87 60.7347 1084.7 62.7585 1085.11 65.1255 1085.11 67.8358Z" fill="#D9E1E2" transform="matrix(1 0 0 1.00643 1029.71 1695)"/></g></g></g></g></svg>