<svg width="1517" height="1835" xmlns="http://www.w3.org/2000/svg" xmlns:xlink="http://www.w3.org/1999/xlink" overflow="hidden"><defs><clipPath id="clip0"><rect x="660" y="90" width="1517" height="1835"/></clipPath><clipPath id="clip1"><rect x="660" y="90" width="1517" height="1511"/></clipPath><clipPath id="clip2"><rect x="660" y="90" width="1517" height="1511"/></clipPath><clipPath id="clip3"><rect x="660" y="90" width="14485" height="1511"/></clipPath><clipPath id="clip4"><rect x="919" y="1695" width="1000" height="230"/></clipPath><clipPath id="clip5"><rect x="919" y="1695" width="1000" height="230"/></clipPath><clipPath id="clip6"><rect x="697" y="1695" width="2210" height="230"/></clipPath></defs><g clip-path="url(#clip0)" transform="translate(-660 -90)"><g clip-path="url(#clip1)"><g clip-path="url(#clip2)"><g clip-path="url(#clip3)"><path d="M1313.01 552.958C1286.43 552.958 1264.89 574.502 1264.89 601.078 1264.89 997.055 943.886 1318.06 547.909 1318.06 521.333 1318.06 499.789 1339.6 499.789 1366.18 499.789 1392.75 521.333 1414.3 547.909 1414.3 997.036 1414.3 1361.13 1050.21 1361.13 601.078 1361.13 574.502 1339.58 552.958 1313.01 552.958Z" fill="#00A3E0" transform="matrix(1.00011 0 0 1 660 90.0001)"/><path d="M1022.58 861.338C1068.85 785.849 1113.6 685.195 1104.8 544.283 1086.56 252.389 822.182 30.9522 572.537 54.9498 474.806 64.3445 374.454 144.007 383.37 286.698 387.245 348.706 417.594 385.303 466.918 413.44 513.864 440.222 574.179 457.188 642.554 476.418 725.145 499.648 820.949 525.742 894.581 580.004 982.829 645.038 1043.16 720.425 1022.58 861.338Z" fill="#B9D9EB" transform="matrix(1.00011 0 0 1 660 90.0001)"/><path d="M83.3395 350.915C37.0643 426.405-7.68837 527.058 1.1164 667.971 19.3551 959.865 283.733 1181.3 533.379 1157.3 631.11 1147.91 731.461 1068.25 722.546 925.556 718.671 863.548 688.32 826.95 638.998 798.813 592.052 772.031 531.737 755.066 463.362 735.836 380.771 712.605 284.967 686.512 211.335 632.25 123.086 567.216 62.759 491.828 83.3395 350.915Z" fill="#00A3E0" transform="matrix(1.00011 0 0 1 660 90.0001)"/><path d="M7709.51 648.662 7709.51 1137.82 7900.92 1137.82 7900.92 606.127C7900.92 508.141 7881.78 434.117 7843.47 383.904 7805.17 333.204 7747.41 308.38 7672.29 308.38 7590.79 308.38 7525.48 356.037 7486.2 435.986L7475.56 435.986C7478.46 394.708 7481.09 371.06 7483.01 353.793 7484.99 335.986 7486.2 324.963 7486.2 308.38L7486.2 0 7294.79 0 7294.79 1137.82 7496.83 1137.82 7496.83 744.366C7496.83 656.129 7499.79 590.846 7517.95 544.047 7536.11 496.758 7567.78 473.115 7612.95 473.115 7673.33 473.115 7709.51 529.225 7709.51 648.662ZM4930.94 1078.88C4982.66 1025.41 5008.52 948.399 5008.52 847.839 5008.52 785.049 4994.36 729.128 4966.01 680.074 4938.15 631.021 4888.68 582.949 4817.56 535.857 4764.84 501.52 4727.79 470.861 4706.39 443.883 4685.51 416.902 4675.07 385.263 4675.07 348.963 4675.07 312.172 4683.77 283.231 4701.18 262.138 4719.09 240.554 4744.44 229.762 4777.28 229.762 4807.12 229.762 4834.96 235.158 4860.82 245.949 4887.17 256.743 4912.29 269.005 4936.17 282.74L5003.29 122.335C4926.22 76.2242 4845.91 53.169 4762.35 53.169 4674.81 53.169 4604.95 80.1485 4552.74 134.108 4501.01 188.067 4475.15 261.158 4475.15 353.378 4475.15 401.449 4481.62 443.636 4494.55 479.935 4507.97 516.235 4526.62 549.102 4550.5 578.534 4574.85 607.475 4610.41 637.89 4657.16 669.774 4710.88 706.074 4749.42 739.185 4772.79 769.107 4796.16 798.539 4807.86 831.161 4807.86 866.97 4807.86 903.269 4797.91 931.966 4778.02 953.059 4758.63 974.152 4729.53 984.699 4690.74 984.699 4622.6 984.699 4547.76 958.454 4466.2 905.968L4466.2 1103.9C4532.83 1140.69 4613.65 1159.08 4708.65 1159.08 4805.61 1159.08 4879.72 1132.35 4930.94 1078.88ZM5139.83 1050.08C5199.5 1122.75 5280.87 1159.08 5383.94 1159.08 5472.22 1159.08 5547.91 1140.18 5611.03 1102.37L5611.03 941.068C5543.98 980.841 5478.39 1000.73 5414.26 1000.73 5363.97 1000.73 5324.52 983.05 5295.91 947.697 5267.31 911.853 5254.59 860.064 5253.1 786.901L5646.55 786.901 5646.55 679.596C5646.55 562.241 5620.67 471.156 5568.88 406.341 5517.09 341.035 5446.34 308.38 5356.57 308.38 5260.39 308.38 5185.45 346.434 5131.68 422.545 5077.94 498.653 5051.06 604.47 5051.06 739.994 5051.06 873.552 5080.64 976.913 5139.83 1050.08ZM5285.55 504.3C5303.8 474.348 5326.98 459.372 5355.1 459.372 5385.17 459.372 5408.84 474.838 5426.11 505.773 5443.36 536.707 5454.16 588.758 5455.14 648.662L5253.1 648.662C5256.06 586.301 5267.31 533.762 5285.55 504.3ZM6125.07 1137.82 6093.17 1031.48 6082.54 1031.48C6053.23 1079.52 6025.01 1113.74 5993.72 1131.88 5962.42 1150.02 5922.9 1159.08 5875.22 1159.08 5814.1 1159.08 5765.9 1136.54 5730.62 1091.44 5695.85 1046.34 5678.45 983.601 5678.45 903.212 5678.45 816.94 5702.29 752.971 5750 711.306 5798.19 669.151 5869.99 645.867 5965.39 641.457L6075.69 637.046 6075.69 578.224C6075.69 501.756 6042.15 463.521 5975.07 463.521 5925.39 463.521 5868.24 482.639 5803.65 520.873L5735.09 385.584C5817.56 334.114 5905.89 308.38 6002.78 308.38 6090.72 308.38 6158.93 333.38 6204.63 383.378 6250.85 432.885 6273.94 503.226 6273.94 594.4L6273.94 1137.82 6125.07 1137.82ZM5956.44 1006.15C5992.72 1006.15 6021.54 990.218 6042.89 958.357 6064.76 926.004 6075.69 883.114 6075.69 829.685L6075.69 760.57 6014.59 763.511C5969.37 765.961 5936.07 778.707 5914.71 801.744 5893.85 824.783 5883.41 859.096 5883.41 904.681 5883.41 972.327 5907.76 1006.15 5956.44 1006.15ZM6763.1 324.331C6740.34 316.994 6706.46 308.38 6682.75 308.38 6649.34 308.38 6620.03 319.384 6594.85 341.394 6569.67 363.404 6550.47 384.631 6529.16 435.986L6518.52 435.986 6486.62 329.648 6337.75 329.648 6337.75 1137.82 6539 1137.82 6539 712.465C6539 641.057 6543.53 594.989 6568.71 557.817 6593.89 520.157 6629.96 501.326 6676.92 501.326 6698.72 501.326 6717.65 505.531 6731.2 510.423L6763.1 324.331ZM7060.85 1159.08C6963.93 1159.08 6889.73 1126.72 6839.09 1055.52 6788.43 984.316 6763.1 879.728 6763.1 741.75 6763.1 597.388 6786.96 489.608 6834.69 418.408 6882.92 347.209 6954.87 308.38 7055.21 308.38 7085.39 308.38 7119.37 316.028 7152.49 324.867 7185.6 333.706 7225.95 344.854 7252.25 361.549L7186.09 515.631C7145.68 491.571 7109.87 479.542 7078.71 479.542 7037.3 479.542 7007.36 501.392 6988.83 545.093 6970.82 588.305 6961.82 653.364 6961.82 740.276 6961.82 825.224 6970.82 888.812 6988.83 931.041 7006.87 972.778 7036.32 993.646 7077.24 993.646 7125.95 993.646 7176.84 976.46 7229.92 942.089L7229.92 1114.44C7178.8 1146.36 7122.69 1159.08 7060.85 1159.08Z" fill="#B9D9EB" fill-rule="evenodd" transform="matrix(1.00011 0 0 1 660 90.0001)"/><path d="M2292.16 1015.79C2359.13 920.266 2392.61 783.588 2392.61 605.759 2392.61 427.932 2359.36 291.498 2292.9 196.46 2226.42 100.933 2130.89 53.169 2006.32 53.169 1880.26 53.169 1783.75 100.688 1716.79 195.726 1649.82 290.273 1616.34 426.462 1616.34 604.289 1616.34 783.588 1649.82 921 1716.79 1016.53 1783.75 1111.57 1879.77 1159.08 2004.84 1159.08 2129.42 1159.08 2225.19 1111.32 2292.16 1015.79ZM1868.2 885.728C1837.18 821.553 1821.67 728.23 1821.67 605.759 1821.67 482.798 1837.18 389.476 1868.2 325.79 1899.22 261.615 1945.26 229.529 2006.32 229.529 2126.46 229.529 2186.54 354.937 2186.54 605.759 2186.54 856.581 2125.97 981.991 2004.84 981.991 1944.77 981.991 1899.22 949.903 1868.2 885.728ZM2726.21 1137.77C2753.5 1153.53 2782.87 1159.08 2817.96 1159.08 2893.03 1159.08 2954.07 1123.49 2997.46 1047.67 3040.84 971.845 3062.54 867.216 3062.54 733.786 3062.54 598.383 3041.57 493.757 2999.65 419.901 2957.73 345.554 2899.73 308.38 2825.64 308.38 2748.63 308.38 2688.27 354.252 2647.82 435.986L2637.18 435.986 2605.28 329.648 2456.41 329.648 2456.41 1510 2647.82 1510 2647.82 1159.08C2647.82 1145.3 2644.99 1098.44 2637.18 1031.48L2647.82 1031.48C2663.77 1079.33 2699.39 1121.52 2726.21 1137.77ZM2677.21 529.206C2694.29 493.264 2721.81 475.293 2759.83 475.293 2795.41 475.293 2821.49 496.465 2838.08 538.808 2855.13 581.152 2863.66 645.159 2863.66 730.832 2863.66 905.128 2829.55 992.276 2761.3 992.276 2721.81 992.276 2693.54 971.598 2676.49 930.239 2659.43 888.88 2650.9 822.903 2650.9 732.307L2650.9 706.459C2651.88 623.741 2660.64 564.657 2677.21 529.206ZM3437.95 1159.08C3334.89 1159.08 3253.52 1122.75 3193.84 1050.08 3134.65 976.913 3105.07 873.552 3105.07 739.994 3105.07 604.47 3131.95 498.653 3185.7 422.545 3239.46 346.434 3314.41 308.38 3410.58 308.38 3500.33 308.38 3571.11 341.035 3622.89 406.341 3674.68 471.156 3700.56 562.241 3700.56 679.596L3700.56 786.901 3307.11 786.901C3308.6 860.064 3321.32 911.853 3349.92 947.697 3378.53 983.05 3417.98 1000.73 3468.28 1000.73 3532.4 1000.73 3597.99 980.841 3665.05 941.068L3665.05 1102.37C3601.92 1140.18 3526.23 1159.08 3437.95 1159.08ZM3409.11 459.372C3381 459.372 3357.81 474.348 3339.57 504.3 3321.32 533.762 3310.07 586.301 3307.11 648.662L3509.16 648.662C3508.18 588.758 3497.37 536.707 3480.12 505.773 3462.86 474.838 3439.18 459.372 3409.11 459.372ZM4179.08 648.662 4179.08 1137.82 4370.49 1137.82 4370.49 610.361C4370.49 511.675 4351.84 436.673 4314.52 385.356 4277.7 334.04 4221.96 308.38 4147.33 308.38 4103.16 308.38 4064.6 319.235 4031.7 340.947 3998.82 362.164 3973.45 397.991 3955.77 435.986L3945.14 435.986 3918.56 329.648 3764.37 329.648 3764.37 1137.82 3966.41 1137.82 3966.41 749.683C3966.41 649.517 3970.09 581.248 3989.74 539.308 4009.37 496.871 4040.29 475.654 4082.53 475.654 4114.43 475.654 4137.53 490.95 4151.76 521.543 4166 552.137 4179.08 588.957 4179.08 648.662Z" fill="#00A3E0" fill-rule="evenodd" transform="matrix(1.00011 0 0 1 660 90.0001)"/><path d="M8906.28 601.527C8906.28 775.919 8870.61 909.362 8799.32 1001.86 8728.5 1093.87 8626.38 1139.88 8492.92 1139.88L8234.24 1139.88 8234.24 83.4107 8516.78 83.4107C8639.62 83.4107 8735.24 128.936 8803.66 219.986 8872.06 310.554 8906.28 437.734 8906.28 601.527ZM8704.66 607.307C8704.66 371.254 8639.62 253.225 8509.55 253.225L8430.78 253.225 8430.78 967.893 8494.37 967.893C8566.17 967.893 8619.14 938.025 8653.34 878.288 8687.56 818.071 8704.66 727.743 8704.66 607.307Z" fill="#D9E1E2" transform="matrix(1.00011 0 0 1 660 90.0001)"/><path d="M9399.5 1139.88 9361.19 1030.04 9356.85 1030.04C9328.44 1077.25 9299.05 1109.77 9268.7 1127.59 9238.35 1145.42 9200.05 1154.33 9153.81 1154.33 9094.56 1154.33 9047.81 1132.17 9013.62 1087.85 8979.91 1043.53 8963.04 981.864 8963.04 902.859 8963.04 818.071 8986.16 755.204 9032.42 714.256 9079.14 672.824 9148.75 649.942 9241.24 645.606L9348.2 641.272 9348.2 583.462C9348.2 508.309 9315.68 470.733 9250.64 470.733 9202.47 470.733 9147.07 489.521 9084.44 527.096L9017.96 394.136C9097.92 343.553 9184.88 318.261 9278.82 318.261 9364.08 318.261 9428.89 342.83 9473.21 391.968 9518 440.624 9540.41 509.755 9540.41 599.359L9540.41 1139.88 9399.5 1139.88ZM9232.57 1004.02C9267.74 1004.02 9295.69 988.367 9316.4 957.055 9337.58 925.26 9348.2 883.105 9348.2 830.596L9348.2 762.671 9288.95 765.562C9245.09 767.969 9212.83 780.496 9192.12 803.137 9171.87 825.779 9161.77 859.501 9161.77 904.303 9161.77 970.783 9185.35 1004.02 9232.57 1004.02Z" fill="#D9E1E2" transform="matrix(1.00011 0 0 1 660 90.0001)"/><path d="M10083.5 904.303C10083.5 982.827 10060.4 1044.25 10014.1 1088.57 9968.36 1132.41 9900.67 1154.33 9811.07 1154.33 9731.59 1154.33 9665.83 1138.67 9613.79 1107.36L9613.79 940.434C9640.29 958.739 9671.12 973.916 9706.3 985.958 9741.95 998.002 9773.25 1004.02 9800.24 1004.02 9830.1 1004.02 9852.75 996.798 9868.15 982.346 9884.06 967.412 9892.01 947.902 9892.01 923.814 9892.01 899.245 9883.82 877.808 9867.42 859.501 9851.05 841.195 9820.96 818.794 9777.1 792.297 9718.81 757.612 9676.91 720.759 9651.37 681.737 9626.31 642.235 9613.79 595.746 9613.79 542.273 9613.79 473.864 9637.16 419.667 9683.89 379.684 9731.1 339.699 9795.65 319.705 9877.55 319.705 9948.86 319.705 10016 338.495 10079.2 376.071L10016.3 514.091C9964.75 486.15 9919.47 472.179 9880.44 472.179 9855.88 472.179 9837.33 478.683 9824.8 491.69 9812.77 504.695 9806.73 520.595 9806.73 539.383 9806.73 561.061 9814.19 580.329 9829.14 597.19 9844.56 614.051 9872.98 635.008 9914.41 660.059 9964.51 690.408 9999.67 716.182 10019.9 737.38 10040.1 758.575 10055.8 782.663 10066.9 809.641 10078 836.619 10083.5 868.173 10083.5 904.303Z" fill="#D9E1E2" transform="matrix(1.00011 0 0 1 660 90.0001)"/><path d="M10561.6 1139.88 10561.6 660.059C10561.6 542.03 10531.9 483.017 10472.7 483.017 10428.4 483.017 10397.3 506.382 10379.4 553.111 10361.6 599.359 10352.7 666.08 10352.7 753.275L10352.7 1139.88 10160.5 1139.88 10160.5 15.4847 10352.7 15.4847 10352.7 265.509C10352.7 297.787 10349.8 355.356 10344.1 438.215L10354.2 438.215C10392.7 359.21 10452 319.705 10531.9 319.705 10605.6 319.705 10661.3 344.756 10698.8 394.859 10736.4 444.478 10755.2 517.702 10755.2 614.534L10755.2 1139.88 10561.6 1139.88Z" fill="#D9E1E2" transform="matrix(1.00011 0 0 1 660 90.0001)"/><path d="M11229.7 319.705C11302.9 319.705 11360.5 356.077 11402.4 428.821 11444.3 501.565 11465.2 603.936 11465.2 735.934 11465.2 869.377 11444 972.47 11401.6 1045.21 11359.7 1117.96 11301.4 1154.33 11226.8 1154.33 11190.6 1154.33 11158.6 1146.62 11130.7 1131.2 11103.2 1115.31 11077.2 1087.61 11052.6 1048.1L11040.3 1048.1 11007.8 1139.88 10866.2 1139.88 10866.2 15.4847 11058.4 15.4847 11058.4 278.516C11058.4 289.597 11058.2 301.16 11057.7 313.204 11057.2 325.246 11054.1 367.4 11048.3 439.661L11058.4 439.661C11082 395.339 11107.5 364.267 11135 346.443 11162.5 328.619 11194 319.705 11229.7 319.705ZM11163.2 483.017C11126.6 483.017 11100.1 500.121 11083.7 534.323 11067.8 568.528 11059.4 628.745 11058.4 714.979L11058.4 734.487C11058.4 827.946 11066.6 893.705 11083 931.764 11099.8 969.82 11127 988.85 11164.6 988.85 11234 988.85 11268.7 903.58 11268.7 733.043 11268.7 566.359 11233.5 483.017 11163.2 483.017Z" fill="#D9E1E2" transform="matrix(1.00011 0 0 1 660 90.0001)"/><path d="M12152.1 735.934C12152.1 867.931 12124.2 970.783 12068.3 1044.49 12012.4 1117.72 11935.8 1154.33 11838.5 1154.33 11776.8 1154.33 11722.4 1137.47 11675.2 1103.75 11628 1070.02 11591.6 1021.61 11566.1 958.499 11540.5 894.909 11527.8 820.721 11527.8 735.934 11527.8 605.38 11555.5 503.491 11610.9 430.267 11666.3 356.56 11743.1 319.705 11841.4 319.705 11936.3 319.705 12011.7 357.283 12067.6 432.434 12123.9 507.105 12152.1 608.271 12152.1 735.934ZM11724.3 735.934C11724.3 819.758 11733.5 883.105 11751.8 925.981 11770.1 968.856 11799.5 990.294 11840 990.294 11917 990.294 11955.6 905.507 11955.6 735.934 11955.6 651.629 11946.2 588.76 11927.4 547.33 11909.1 505.418 11879.9 484.463 11840 484.463 11799.5 484.463 11770.1 505.418 11751.8 547.33 11733.5 588.76 11724.3 651.629 11724.3 735.934Z" fill="#D9E1E2" transform="matrix(1.00011 0 0 1 660 90.0001)"/><path d="M12637.4 1139.88 12599.1 1030.04 12594.8 1030.04C12566.3 1077.25 12537 1109.77 12506.6 1127.59 12476.3 1145.42 12438 1154.33 12391.7 1154.33 12332.4 1154.33 12285.7 1132.17 12251.5 1087.85 12217.8 1043.53 12200.9 981.864 12200.9 902.859 12200.9 818.071 12224.1 755.204 12270.3 714.256 12317 672.824 12386.7 649.942 12479.2 645.606L12586.1 641.272 12586.1 583.462C12586.1 508.309 12553.6 470.733 12488.5 470.733 12440.4 470.733 12385 489.521 12322.3 527.096L12255.9 394.136C12335.8 343.553 12422.8 318.261 12516.7 318.261 12602 318.261 12666.8 342.83 12711.1 391.968 12755.9 440.624 12778.3 509.755 12778.3 599.359L12778.3 1139.88 12637.4 1139.88ZM12470.5 1004.02C12505.7 1004.02 12533.6 988.367 12554.3 957.055 12575.5 925.26 12586.1 883.105 12586.1 830.596L12586.1 762.671 12526.8 765.562C12483 767.969 12450.7 780.496 12430 803.137 12409.8 825.779 12399.7 859.501 12399.7 904.303 12399.7 970.783 12423.3 1004.02 12470.5 1004.02Z" fill="#D9E1E2" transform="matrix(1.00011 0 0 1 660 90.0001)"/><path d="M13232.5 319.705C13256.1 319.705 13279.2 323.319 13301.9 330.545L13279.5 516.981C13266 512.162 13248.4 509.755 13226.7 509.755 13180 509.755 13144.1 528.302 13119.1 565.395 13094 602.009 13081.5 655.483 13081.5 725.817L13081.5 1139.88 12889.3 1139.88 12889.3 334.882 13047.5 334.882 13069.2 460.616 13075.7 460.616C13096.9 410.033 13120 373.902 13145.1 352.223 13170.1 330.545 13199.3 319.705 13232.5 319.705Z" fill="#D9E1E2" transform="matrix(1.00011 0 0 1 660 90.0001)"/><path d="M13555.2 1154.33C13481 1154.33 13422.5 1117.72 13379.6 1044.49 13336.7 971.266 13315.3 869.377 13315.3 738.824 13315.3 607.79 13336.3 505.178 13378.2 430.99 13420.1 356.8 13477.9 319.705 13551.6 319.705 13588.2 319.705 13619.8 328.859 13646.3 347.166 13673.2 364.99 13698 395.339 13720.7 438.215L13732.3 438.215C13726.5 364.99 13723.6 313.684 13723.6 284.299L13723.6 15.4847 13915.8 15.4847 13915.8 1139.88 13772.7 1139.88 13740.2 1035.1 13733.7 1035.1C13692.7 1114.58 13633.3 1154.33 13555.2 1154.33ZM13617.4 991.74C13653 991.74 13679 975.6 13695.4 943.325 13711.8 910.566 13720.7 851.31 13722.1 765.562L13722.1 740.27C13722.1 646.812 13713.7 581.052 13696.8 542.994 13680.5 504.938 13653.3 485.907 13615.2 485.907 13579.5 485.907 13553.5 507.828 13537.2 551.667 13521.2 595.023 13513.3 658.373 13513.3 741.714 13513.3 825.055 13521.5 887.682 13537.9 929.594 13554.2 971.026 13580.7 991.74 13617.4 991.74Z" fill="#D9E1E2" transform="matrix(1.00011 0 0 1 660 90.0001)"/><path d="M14465.4 904.303C14465.4 982.827 14442.3 1044.25 14396 1088.57 14350.3 1132.41 14282.6 1154.33 14193 1154.33 14113.5 1154.33 14047.7 1138.67 13995.7 1107.36L13995.7 940.434C14022.2 958.739 14053 973.916 14088.2 985.958 14123.8 998.002 14155.1 1004.02 14182.1 1004.02 14212 1004.02 14234.6 996.798 14250 982.346 14265.9 967.412 14273.9 947.902 14273.9 923.814 14273.9 899.245 14265.7 877.808 14249.3 859.501 14232.9 841.195 14202.8 818.794 14159 792.297 14100.7 757.612 14058.8 720.759 14033.3 681.737 14008.2 642.235 13995.7 595.746 13995.7 542.273 13995.7 473.864 14019.1 419.667 14065.8 379.684 14113 339.699 14177.5 319.705 14259.4 319.705 14330.7 319.705 14397.9 338.495 14461.1 376.071L14398.2 514.091C14346.6 486.15 14301.4 472.179 14262.3 472.179 14237.8 472.179 14219.2 478.683 14206.7 491.69 14194.6 504.695 14188.6 520.595 14188.6 539.383 14188.6 561.061 14196.1 580.329 14211 597.19 14226.4 614.051 14254.9 635.008 14296.3 660.059 14346.4 690.408 14381.6 716.182 14401.8 737.38 14422 758.575 14437.7 782.663 14448.8 809.641 14459.8 836.619 14465.4 868.173 14465.4 904.303Z" fill="#D9E1E2" transform="matrix(1.00011 0 0 1 660 90.0001)"/></g></g></g><g clip-path="url(#clip4)"><g clip-path="url(#clip5)"><g clip-path="url(#clip6)"><path d="M199.994 84.2253C195.946 84.2253 192.665 87.5069 192.665 91.5549 192.665 151.869 143.771 200.763 83.4563 200.763 79.4083 200.763 76.1267 204.045 76.1267 208.093 76.1267 212.141 79.4083 215.423 83.4563 215.423 151.866 215.423 207.324 159.965 207.324 91.5549 207.324 87.5069 204.042 84.2253 199.994 84.2253Z" fill="#00A3E0" transform="matrix(1.00102 0 0 1 697.866 1695)"/><path d="M155.757 131.197C162.805 119.699 169.622 104.368 168.281 82.904 165.502 38.4434 125.233 4.71458 87.2076 8.36983 72.3214 9.80082 57.0361 21.9349 58.3941 43.6692 58.9843 53.1141 63.607 58.6885 71.1199 62.9743 78.2706 67.0537 87.4576 69.6378 97.8724 72.5669 110.452 76.1054 125.045 80.0798 136.261 88.3449 149.702 98.2508 158.891 109.734 155.757 131.197Z" fill="#B9D9EB" transform="matrix(1.00102 0 0 1 697.866 1695)"/><path d="M12.6941 53.4507C5.64556 64.9491-1.17108 80.2804 0.170048 101.744 2.94812 146.205 43.2176 179.933 81.2431 176.278 96.1293 174.847 111.415 162.713 110.057 140.979 109.466 131.534 104.843 125.959 97.3308 121.674 90.1801 117.594 80.993 115.01 70.5782 112.081 57.9982 108.542 43.4055 104.568 32.1901 96.3029 18.7481 86.3971 9.55932 74.9142 12.6941 53.4507Z" fill="#00A3E0" transform="matrix(1.00102 0 0 1 697.866 1695)"/><path d="M1174.3 98.8028 1174.3 173.31 1203.45 173.31 1203.45 92.3239C1203.45 77.3989 1200.54 66.1237 1194.7 58.4754 1188.87 50.7529 1180.07 46.9718 1168.63 46.9718 1156.21 46.9718 1146.26 54.2308 1140.28 66.4084L1138.66 66.4084C1139.1 60.121 1139.5 56.5191 1139.8 53.889 1140.1 51.1766 1140.28 49.4976 1140.28 46.9718L1140.28 0 1111.13 0 1111.13 173.31 1141.9 173.31 1141.9 113.38C1141.9 99.9402 1142.35 89.9964 1145.12 82.868 1147.88 75.6651 1152.71 72.0639 1159.59 72.0639 1168.79 72.0639 1174.3 80.6105 1174.3 98.8028ZM751.07 164.333C758.948 156.189 762.887 144.458 762.887 129.141 762.887 119.577 760.73 111.059 756.412 103.587 752.168 96.1157 744.633 88.7936 733.8 81.6205 725.77 76.3904 720.127 71.7205 716.868 67.6112 713.687 63.5017 712.096 58.6824 712.096 53.1533 712.096 47.5494 713.421 43.1412 716.074 39.9283 718.802 36.6406 722.663 34.9969 727.665 34.9969 732.21 34.9969 736.45 35.8188 740.389 37.4625 744.403 39.1065 748.229 40.9743 751.867 43.0664L762.09 18.6338C750.351 11.6103 738.118 8.09859 725.391 8.09859 712.057 8.09859 701.416 12.208 693.463 20.427 685.585 28.6459 681.645 39.779 681.645 53.8258 681.645 61.1479 682.63 67.5737 684.6 73.1027 686.644 78.6318 689.485 83.638 693.123 88.1211 696.832 92.5293 702.248 97.162 709.369 102.019 717.551 107.548 723.421 112.591 726.981 117.149 730.541 121.632 732.323 126.601 732.323 132.055 732.323 137.584 730.807 141.955 727.778 145.168 724.824 148.381 720.392 149.987 714.484 149.987 704.104 149.987 692.705 145.99 680.282 137.995L680.282 168.144C690.431 173.747 702.741 176.549 717.211 176.549 731.98 176.549 743.269 172.477 751.07 164.333ZM782.887 159.946C791.977 171.015 804.371 176.549 820.07 176.549 833.517 176.549 845.046 173.67 854.66 167.911L854.66 143.341C844.447 149.4 834.456 152.429 824.689 152.429 817.028 152.429 811.019 149.736 806.662 144.351 802.305 138.891 800.367 131.003 800.141 119.859L860.07 119.859 860.07 103.515C860.07 85.6394 856.128 71.7655 848.24 61.893 840.352 51.9457 829.574 46.9718 815.901 46.9718 801.252 46.9718 789.836 52.7682 781.647 64.3611 773.461 75.9538 769.366 92.0716 769.366 112.714 769.366 133.058 773.872 148.801 782.887 159.946ZM805.084 76.8138C807.864 72.2517 811.395 69.9705 815.677 69.9705 820.258 69.9705 823.863 72.3262 826.494 77.0383 829.121 81.7501 830.766 89.6783 830.915 98.8028L800.141 98.8028C800.591 89.3041 802.305 81.3014 805.084 76.8138ZM932.958 173.31 928.098 157.113 926.479 157.113C922.015 164.43 917.716 169.643 912.951 172.405 908.182 175.168 902.164 176.549 894.901 176.549 885.591 176.549 878.25 173.115 872.876 166.246 867.579 159.377 864.929 149.82 864.929 137.575 864.929 124.435 868.561 114.691 875.827 108.345 883.167 101.924 894.104 98.3771 908.636 97.7053L925.436 97.0334 925.436 88.0738C925.436 76.4264 920.327 70.6025 910.11 70.6025 902.543 70.6025 893.838 73.5145 884 79.3383L873.556 58.7313C886.119 50.8915 899.572 46.9718 914.331 46.9718 927.726 46.9718 938.115 50.7798 945.076 58.3954 952.116 65.9361 955.634 76.6502 955.634 90.5377L955.634 173.31 932.958 173.31ZM907.272 153.254C912.799 153.254 917.188 150.828 920.44 145.975 923.771 141.047 925.436 134.514 925.436 126.376L925.436 115.848 916.129 116.296C909.242 116.67 904.169 118.611 900.916 122.12 897.738 125.629 896.148 130.856 896.148 137.799 896.148 148.103 899.857 153.254 907.272 153.254ZM1030.14 49.4014C1026.67 48.2838 1021.51 46.9718 1017.9 46.9718 1012.81 46.9718 1008.35 48.6479 1004.51 52.0004 1000.68 55.3529 997.753 58.5862 994.507 66.4084L992.887 66.4084 988.028 50.2113 965.352 50.2113 965.352 173.31 996.007 173.31 996.007 108.521C996.007 97.6444 996.697 90.6274 1000.53 84.9656 1004.37 79.2292 1009.86 76.361 1017.01 76.361 1020.33 76.361 1023.22 77.0014 1025.28 77.7465L1030.14 49.4014ZM1075.49 176.549C1060.73 176.549 1049.43 171.619 1041.72 160.774 1034 149.929 1030.14 133.998 1030.14 112.982 1030.14 90.9928 1033.78 74.576 1041.04 63.731 1048.39 52.8861 1059.35 46.9718 1074.63 46.9718 1079.23 46.9718 1084.41 48.1367 1089.45 49.483 1094.5 50.8293 1100.64 52.5275 1104.65 55.0704L1094.57 78.5398C1088.41 74.875 1082.96 73.0428 1078.21 73.0428 1071.91 73.0428 1067.35 76.371 1064.52 83.0274 1061.78 89.6093 1060.41 99.519 1060.41 112.757 1060.41 125.696 1061.78 135.382 1064.52 141.814 1067.27 148.171 1071.76 151.35 1077.99 151.35 1085.41 151.35 1093.16 148.732 1101.25 143.497L1101.25 169.749C1093.46 174.61 1084.91 176.549 1075.49 176.549Z" fill="#B9D9EB" fill-rule="evenodd" transform="matrix(1.00102 0 0 1 697.866 1695)"/><path d="M349.137 154.724C359.338 140.173 364.437 119.354 364.437 92.2679 364.437 65.1817 359.373 44.4004 349.25 29.9244 339.124 15.3739 324.572 8.09859 305.598 8.09859 286.398 8.09859 271.698 15.3366 261.497 29.8125 251.297 44.2138 246.197 64.9578 246.197 92.044 246.197 119.354 251.297 140.285 261.497 154.835 271.698 169.311 286.323 176.549 305.373 176.549 324.349 176.549 338.936 169.274 349.137 154.724ZM284.56 134.912C279.835 125.137 277.473 110.923 277.473 92.2679 277.473 73.5388 279.835 59.3241 284.56 49.6236 289.285 39.8486 296.298 34.9613 305.598 34.9613 323.898 34.9613 333.05 54.0633 333.05 92.2679 333.05 130.473 323.823 149.575 305.373 149.575 296.223 149.575 289.285 144.687 284.56 134.912ZM415.25 173.303C419.407 175.703 423.88 176.549 429.225 176.549 440.66 176.549 449.958 171.128 456.566 159.579 463.175 148.029 466.479 132.093 466.479 111.769 466.479 91.1445 463.285 75.208 456.9 63.9585 450.515 52.634 441.681 46.9718 430.395 46.9718 418.665 46.9718 409.471 53.959 403.31 66.4084L401.69 66.4084 396.831 50.2113 374.155 50.2113 374.155 230 403.31 230 403.31 176.549C403.31 174.449 402.879 167.312 401.69 157.113L403.31 157.113C405.739 164.401 411.165 170.828 415.25 173.303ZM407.787 80.6075C410.388 75.1329 414.58 72.3956 420.372 72.3956 425.792 72.3956 429.763 75.6204 432.29 82.0701 434.888 88.5199 436.187 98.2693 436.187 111.319 436.187 137.867 430.991 151.141 420.595 151.141 414.58 151.141 410.275 147.992 407.677 141.692 405.079 135.392 403.78 125.343 403.78 111.544L403.78 107.606C403.929 95.0068 405.263 86.0074 407.787 80.6075ZM523.661 176.549C507.963 176.549 495.569 171.015 486.479 159.946 477.464 148.801 472.958 133.058 472.958 112.714 472.958 92.0716 477.052 75.9538 485.238 64.3611 493.428 52.7682 504.843 46.9718 519.492 46.9718 533.163 46.9718 543.943 51.9457 551.831 61.893 559.719 71.7655 563.662 85.6394 563.662 103.515L563.662 119.859 503.732 119.859C503.959 131.003 505.896 138.891 510.253 144.351 514.61 149.736 520.62 152.429 528.281 152.429 538.048 152.429 548.038 149.4 558.252 143.341L558.252 167.911C548.637 173.67 537.108 176.549 523.661 176.549ZM519.269 69.9705C514.986 69.9705 511.455 72.2517 508.676 76.8138 505.896 81.3014 504.183 89.3041 503.732 98.8028L534.507 98.8028C534.358 89.6783 532.712 81.7501 530.085 77.0383 527.455 72.3262 523.849 69.9705 519.269 69.9705ZM636.549 98.8028 636.549 173.31 665.704 173.31 665.704 92.9689C665.704 77.9373 662.863 66.5131 657.178 58.6966 651.57 50.8802 643.08 46.9718 631.713 46.9718 624.984 46.9718 619.111 48.6252 614.1 51.9324 609.092 55.164 605.227 60.6212 602.535 66.4084L600.915 66.4084 596.866 50.2113 573.38 50.2113 573.38 173.31 604.155 173.31 604.155 114.19C604.155 98.933 604.715 88.5344 607.708 82.1463 610.698 75.6823 615.409 72.4506 621.842 72.4506 626.701 72.4506 630.219 74.7804 632.387 79.4404 634.557 84.1003 636.549 89.7087 636.549 98.8028Z" fill="#00A3E0" fill-rule="evenodd" transform="matrix(1.00102 0 0 1 697.866 1695)"/><path d="M1356.59 91.6232C1356.59 118.186 1351.15 138.512 1340.29 152.601 1329.51 166.616 1313.95 173.623 1293.62 173.623L1254.22 173.623 1254.22 12.7049 1297.26 12.7049C1315.97 12.7049 1330.53 19.6392 1340.95 33.5078 1351.37 47.3029 1356.59 66.6747 1356.59 91.6232ZM1325.88 92.5037C1325.88 56.5486 1315.97 38.5707 1296.16 38.5707L1284.16 38.5707 1284.16 147.427 1293.84 147.427C1304.78 147.427 1312.85 142.878 1318.06 133.779 1323.27 124.607 1325.88 110.848 1325.88 92.5037Z" fill="#D9E1E2" transform="matrix(1.00102 0 0 1 697.866 1695)"/><path d="M1431.71 173.623 1425.88 156.893 1425.22 156.893C1420.89 164.084 1416.41 169.037 1411.79 171.752 1407.17 174.467 1401.33 175.825 1394.29 175.825 1385.26 175.825 1378.14 172.449 1372.93 165.699 1367.8 158.948 1365.23 149.555 1365.23 137.522 1365.23 124.607 1368.75 115.031 1375.8 108.794 1382.92 102.483 1393.52 98.9978 1407.61 98.3373L1423.9 97.6771 1423.9 88.8717C1423.9 77.4245 1418.94 71.701 1409.04 71.701 1401.7 71.701 1393.26 74.5628 1383.72 80.2862L1373.6 60.0339C1385.78 52.3292 1399.02 48.4769 1413.33 48.4769 1426.32 48.4769 1436.19 52.2191 1442.94 59.7038 1449.76 67.115 1453.18 77.6447 1453.18 91.2931L1453.18 173.623 1431.71 173.623ZM1406.28 152.931C1411.64 152.931 1415.9 150.546 1419.05 145.777 1422.28 140.934 1423.9 134.513 1423.9 126.515L1423.9 116.168 1414.87 116.609C1408.19 116.975 1403.28 118.883 1400.12 122.332 1397.04 125.781 1395.5 130.917 1395.5 137.741 1395.5 147.868 1399.09 152.931 1406.28 152.931Z" fill="#D9E1E2" transform="matrix(1.00102 0 0 1 697.866 1695)"/><path d="M1535.9 137.741C1535.9 149.702 1532.37 159.058 1525.33 165.809 1518.36 172.486 1508.05 175.825 1494.4 175.825 1482.29 175.825 1472.28 173.44 1464.35 168.67L1464.35 143.245C1468.39 146.033 1473.08 148.345 1478.44 150.179 1483.87 152.013 1488.64 152.931 1492.75 152.931 1497.3 152.931 1500.75 151.83 1503.1 149.629 1505.52 147.354 1506.73 144.382 1506.73 140.713 1506.73 136.971 1505.48 133.706 1502.98 130.917 1500.49 128.129 1495.91 124.717 1489.23 120.681 1480.35 115.398 1473.97 109.784 1470.08 103.841 1466.26 97.8238 1464.35 90.7428 1464.35 82.5978 1464.35 72.1779 1467.91 63.9228 1475.03 57.8327 1482.22 51.7422 1492.05 48.6968 1504.53 48.6968 1515.39 48.6968 1525.62 51.5589 1535.24 57.2823L1525.66 78.3053C1517.81 74.0493 1510.91 71.9213 1504.97 71.9213 1501.23 71.9213 1498.4 72.9119 1496.49 74.8932 1494.66 76.8741 1493.74 79.2959 1493.74 82.1576 1493.74 85.4596 1494.88 88.3945 1497.15 90.9627 1499.5 93.5309 1503.83 96.7231 1510.14 100.539 1517.77 105.161 1523.13 109.087 1526.21 112.316 1529.29 115.545 1531.68 119.214 1533.36 123.323 1535.05 127.432 1535.9 132.238 1535.9 137.741Z" fill="#D9E1E2" transform="matrix(1.00102 0 0 1 697.866 1695)"/><path d="M1608.71 173.623 1608.71 100.539C1608.71 82.5609 1604.2 73.5721 1595.18 73.5721 1588.43 73.5721 1583.69 77.131 1580.97 84.2487 1578.26 91.2931 1576.9 101.456 1576.9 114.737L1576.9 173.623 1547.62 173.623 1547.62 2.35859 1576.9 2.35859 1576.9 40.4418C1576.9 45.3583 1576.46 54.1271 1575.58 66.7479L1577.12 66.7479C1582.99 54.7141 1592.02 48.6968 1604.2 48.6968 1615.43 48.6968 1623.9 52.5126 1629.62 60.144 1635.35 67.702 1638.21 78.8553 1638.21 93.6045L1638.21 173.623 1608.71 173.623Z" fill="#D9E1E2" transform="matrix(1.00102 0 0 1 697.866 1695)"/><path d="M1710.48 48.6968C1721.63 48.6968 1730.4 54.2369 1736.78 65.3171 1743.17 76.3972 1746.36 91.9903 1746.36 112.096 1746.36 132.422 1743.13 148.125 1736.67 159.205 1730.29 170.285 1721.41 175.825 1710.04 175.825 1704.53 175.825 1699.65 174.651 1695.4 172.303 1691.22 169.881 1687.25 165.662 1683.51 159.645L1681.64 159.645 1676.69 173.623 1655.11 173.623 1655.11 2.35859 1684.39 2.35859 1684.39 42.423C1684.39 44.1108 1684.35 45.872 1684.28 47.7065 1684.21 49.5407 1683.73 55.9616 1682.85 66.9682L1684.39 66.9682C1687.99 60.2172 1691.88 55.4844 1696.06 52.7694 1700.24 50.0545 1705.05 48.6968 1710.48 48.6968ZM1700.35 73.5721C1694.77 73.5721 1690.74 76.1773 1688.24 81.3869 1685.82 86.5969 1684.54 95.7691 1684.39 108.904L1684.39 111.876C1684.39 126.111 1685.64 136.127 1688.13 141.924 1690.7 147.721 1694.85 150.62 1700.57 150.62 1711.14 150.62 1716.42 137.631 1716.42 111.656 1716.42 86.2665 1711.06 73.5721 1700.35 73.5721Z" fill="#D9E1E2" transform="matrix(1.00102 0 0 1 697.866 1695)"/><path d="M1850.98 112.096C1850.98 132.201 1846.73 147.868 1838.22 159.095 1829.7 170.248 1818.04 175.825 1803.22 175.825 1793.82 175.825 1785.53 173.257 1778.34 168.12 1771.15 162.984 1765.61 155.609 1761.72 145.997 1757.83 136.311 1755.89 125.01 1755.89 112.096 1755.89 92.2102 1760.11 76.6907 1768.54 65.5374 1776.98 54.3104 1788.69 48.6968 1803.66 48.6968 1818.11 48.6968 1829.59 54.4206 1838.11 65.8675 1846.69 77.2411 1850.98 92.6505 1850.98 112.096ZM1785.82 112.096C1785.82 124.864 1787.22 134.513 1790.01 141.043 1792.79 147.574 1797.27 150.839 1803.44 150.839 1815.18 150.839 1821.05 137.925 1821.05 112.096 1821.05 99.2547 1819.61 89.6786 1816.75 83.3682 1813.96 76.9842 1809.53 73.7924 1803.44 73.7924 1797.27 73.7924 1792.79 76.9842 1790.01 83.3682 1787.22 89.6786 1785.82 99.2547 1785.82 112.096Z" fill="#D9E1E2" transform="matrix(1.00102 0 0 1 697.866 1695)"/><path d="M1924.9 173.623 1919.07 156.893 1918.41 156.893C1914.08 164.084 1909.6 169.037 1904.98 171.752 1900.36 174.467 1894.52 175.825 1887.48 175.825 1878.45 175.825 1871.33 172.449 1866.13 165.699 1860.99 158.948 1858.42 149.555 1858.42 137.522 1858.42 124.607 1861.94 115.031 1868.99 108.794 1876.1 102.483 1886.71 98.9978 1900.8 98.3373L1917.09 97.6771 1917.09 88.8717C1917.09 77.4245 1912.13 71.701 1902.23 71.701 1894.89 71.701 1886.45 74.5628 1876.91 80.2862L1866.79 60.0339C1878.97 52.3292 1892.21 48.4769 1906.52 48.4769 1919.51 48.4769 1929.38 52.2191 1936.13 59.7038 1942.95 67.115 1946.36 77.6447 1946.36 91.2931L1946.36 173.623 1924.9 173.623ZM1899.48 152.931C1904.83 152.931 1909.09 150.546 1912.24 145.777 1915.47 140.934 1917.09 134.513 1917.09 126.515L1917.09 116.168 1908.06 116.609C1901.38 116.975 1896.47 118.883 1893.31 122.332 1890.23 125.781 1888.69 130.917 1888.69 137.741 1888.69 147.868 1892.28 152.931 1899.48 152.931Z" fill="#D9E1E2" transform="matrix(1.00102 0 0 1 697.866 1695)"/><path d="M2015.55 48.6968C2019.14 48.6968 2022.67 49.2472 2026.12 50.348L2022.7 78.7455C2020.65 78.0115 2017.97 77.6447 2014.67 77.6447 2007.55 77.6447 2002.08 80.4699 1998.27 86.1198 1994.45 91.6968 1992.54 99.8417 1992.54 110.555L1992.54 173.623 1963.27 173.623 1963.27 51.0085 1987.37 51.0085 1990.67 70.16 1991.66 70.16C1994.89 62.4554 1998.41 56.9519 2002.23 53.6499 2006.05 50.348 2010.48 48.6968 2015.55 48.6968Z" fill="#D9E1E2" transform="matrix(1.00102 0 0 1 697.866 1695)"/><path d="M2064.7 175.825C2053.4 175.825 2044.49 170.248 2037.96 159.095 2031.42 147.941 2028.16 132.422 2028.16 112.536 2028.16 92.5773 2031.35 76.9476 2037.73 65.6475 2044.12 54.347 2052.92 48.6968 2064.15 48.6968 2069.73 48.6968 2074.53 50.0911 2078.57 52.8796 2082.68 55.5946 2086.46 60.2172 2089.91 66.7479L2091.67 66.7479C2090.79 55.5946 2090.35 47.7797 2090.35 43.3038L2090.35 2.35859 2119.62 2.35859 2119.62 173.623 2097.83 173.623 2092.88 157.664 2091.89 157.664C2085.65 169.771 2076.59 175.825 2064.7 175.825ZM2074.17 151.06C2079.59 151.06 2083.56 148.601 2086.05 143.685 2088.55 138.695 2089.91 129.67 2090.13 116.609L2090.13 112.756C2090.13 98.521 2088.84 88.5046 2086.27 82.7077 2083.78 76.911 2079.63 74.0124 2073.84 74.0124 2068.41 74.0124 2064.44 77.3513 2061.95 84.0287 2059.53 90.6326 2058.32 100.282 2058.32 112.976 2058.32 125.671 2059.56 135.21 2062.06 141.594 2064.55 147.905 2068.59 151.06 2074.17 151.06Z" fill="#D9E1E2" transform="matrix(1.00102 0 0 1 697.866 1695)"/><path d="M2203.34 137.741C2203.34 149.702 2199.81 159.058 2192.77 165.809 2185.8 172.486 2175.49 175.825 2161.84 175.825 2149.74 175.825 2139.72 173.44 2131.79 168.67L2131.79 143.245C2135.83 146.033 2140.53 148.345 2145.88 150.179 2151.31 152.013 2156.08 152.931 2160.19 152.931 2164.74 152.931 2168.19 151.83 2170.54 149.629 2172.96 147.354 2174.17 144.382 2174.17 140.713 2174.17 136.971 2172.92 133.706 2170.43 130.917 2167.93 128.129 2163.34 124.717 2156.67 120.681 2147.79 115.398 2141.41 109.784 2137.52 103.841 2133.7 97.8238 2131.79 90.7428 2131.79 82.5978 2131.79 72.1779 2135.35 63.9228 2142.47 57.8327 2149.66 51.7422 2159.49 48.6968 2171.97 48.6968 2182.83 48.6968 2193.06 51.5589 2202.68 57.2823L2193.1 78.3053C2185.25 74.0493 2178.35 71.9213 2172.41 71.9213 2168.67 71.9213 2165.84 72.9119 2163.93 74.8932 2162.1 76.8741 2161.18 79.2959 2161.18 82.1576 2161.18 85.4596 2162.32 88.3945 2164.59 90.9627 2166.94 93.5309 2171.27 96.7231 2177.58 100.539 2185.21 105.161 2190.57 109.087 2193.65 112.316 2196.73 115.545 2199.12 119.214 2200.8 123.323 2202.49 127.432 2203.34 132.238 2203.34 137.741Z" fill="#D9E1E2" transform="matrix(1.00102 0 0 1 697.866 1695)"/></g></g></g></g></svg>