<svg width="1517" height="1621" xmlns="http://www.w3.org/2000/svg" xmlns:xlink="http://www.w3.org/1999/xlink" overflow="hidden"><defs><clipPath id="clip0"><rect x="366" y="84" width="1517" height="1621"/></clipPath><clipPath id="clip1"><rect x="366" y="83" width="1518" height="1511"/></clipPath><clipPath id="clip2"><rect x="366" y="83" width="1518" height="1511"/></clipPath><clipPath id="clip3"><rect x="366" y="83" width="14485" height="1511"/></clipPath><clipPath id="clip4"><rect x="644" y="1535" width="735" height="170"/></clipPath><clipPath id="clip5"><rect x="644" y="1535" width="735" height="170"/></clipPath><clipPath id="clip6"><rect x="481" y="1535" width="1623" height="170"/></clipPath></defs><g clip-path="url(#clip0)" transform="translate(-366 -84)"><g clip-path="url(#clip1)"><g clip-path="url(#clip2)"><g clip-path="url(#clip3)"><path d="M1313.01 552.958C1286.43 552.958 1264.89 574.502 1264.89 601.078 1264.89 997.055 943.886 1318.06 547.909 1318.06 521.333 1318.06 499.789 1339.6 499.789 1366.18 499.789 1392.75 521.333 1414.3 547.909 1414.3 997.036 1414.3 1361.13 1050.21 1361.13 601.078 1361.13 574.502 1339.58 552.958 1313.01 552.958Z" fill="#00A3E0" transform="matrix(1.00011 0 0 1 366 83.9999)"/><path d="M1022.58 861.338C1068.85 785.849 1113.6 685.195 1104.8 544.283 1086.56 252.389 822.182 30.9522 572.537 54.9498 474.806 64.3445 374.454 144.007 383.37 286.698 387.245 348.706 417.594 385.303 466.918 413.44 513.864 440.222 574.179 457.188 642.554 476.418 725.145 499.648 820.949 525.742 894.581 580.004 982.829 645.038 1043.16 720.425 1022.58 861.338Z" fill="#B9D9EB" transform="matrix(1.00011 0 0 1 366 83.9999)"/><path d="M83.3395 350.915C37.0643 426.405-7.68837 527.058 1.1164 667.971 19.3551 959.865 283.733 1181.3 533.379 1157.3 631.11 1147.91 731.461 1068.25 722.546 925.556 718.671 863.548 688.32 826.95 638.998 798.813 592.052 772.031 531.737 755.066 463.362 735.836 380.771 712.605 284.967 686.512 211.335 632.25 123.086 567.216 62.759 491.828 83.3395 350.915Z" fill="#00A3E0" transform="matrix(1.00011 0 0 1 366 83.9999)"/><path d="M7709.51 648.662 7709.51 1137.82 7900.92 1137.82 7900.92 606.127C7900.92 508.141 7881.78 434.117 7843.47 383.904 7805.17 333.204 7747.41 308.38 7672.29 308.38 7590.79 308.38 7525.48 356.037 7486.2 435.986L7475.56 435.986C7478.46 394.708 7481.09 371.06 7483.01 353.793 7484.99 335.986 7486.2 324.963 7486.2 308.38L7486.2 0 7294.79 0 7294.79 1137.82 7496.83 1137.82 7496.83 744.366C7496.83 656.129 7499.79 590.846 7517.95 544.047 7536.11 496.758 7567.78 473.115 7612.95 473.115 7673.33 473.115 7709.51 529.225 7709.51 648.662ZM4930.94 1078.88C4982.66 1025.41 5008.52 948.399 5008.52 847.839 5008.52 785.049 4994.36 729.128 4966.01 680.074 4938.15 631.021 4888.68 582.949 4817.56 535.857 4764.84 501.52 4727.79 470.861 4706.39 443.883 4685.51 416.902 4675.07 385.263 4675.07 348.963 4675.07 312.172 4683.77 283.231 4701.18 262.138 4719.09 240.554 4744.44 229.762 4777.28 229.762 4807.12 229.762 4834.96 235.158 4860.82 245.949 4887.17 256.743 4912.29 269.005 4936.17 282.74L5003.29 122.335C4926.22 76.2242 4845.91 53.169 4762.35 53.169 4674.81 53.169 4604.95 80.1485 4552.74 134.108 4501.01 188.067 4475.15 261.158 4475.15 353.378 4475.15 401.449 4481.62 443.636 4494.55 479.935 4507.97 516.235 4526.62 549.102 4550.5 578.534 4574.85 607.475 4610.41 637.89 4657.16 669.774 4710.88 706.074 4749.42 739.185 4772.79 769.107 4796.16 798.539 4807.86 831.161 4807.86 866.97 4807.86 903.269 4797.91 931.966 4778.02 953.059 4758.63 974.152 4729.53 984.699 4690.74 984.699 4622.6 984.699 4547.76 958.454 4466.2 905.968L4466.2 1103.9C4532.83 1140.69 4613.65 1159.08 4708.65 1159.08 4805.61 1159.08 4879.72 1132.35 4930.94 1078.88ZM5139.83 1050.08C5199.5 1122.75 5280.87 1159.08 5383.94 1159.08 5472.22 1159.08 5547.91 1140.18 5611.03 1102.37L5611.03 941.068C5543.98 980.841 5478.39 1000.73 5414.26 1000.73 5363.97 1000.73 5324.52 983.05 5295.91 947.697 5267.31 911.853 5254.59 860.064 5253.1 786.901L5646.55 786.901 5646.55 679.596C5646.55 562.241 5620.67 471.156 5568.88 406.341 5517.09 341.035 5446.34 308.38 5356.57 308.38 5260.39 308.38 5185.45 346.434 5131.68 422.545 5077.94 498.653 5051.06 604.47 5051.06 739.994 5051.06 873.552 5080.64 976.913 5139.83 1050.08ZM5285.55 504.3C5303.8 474.348 5326.98 459.372 5355.1 459.372 5385.17 459.372 5408.84 474.838 5426.11 505.773 5443.36 536.707 5454.16 588.758 5455.14 648.662L5253.1 648.662C5256.06 586.301 5267.31 533.762 5285.55 504.3ZM6125.07 1137.82 6093.17 1031.48 6082.54 1031.48C6053.23 1079.52 6025.01 1113.74 5993.72 1131.88 5962.42 1150.02 5922.9 1159.08 5875.22 1159.08 5814.1 1159.08 5765.9 1136.54 5730.62 1091.44 5695.85 1046.34 5678.45 983.601 5678.45 903.212 5678.45 816.94 5702.29 752.971 5750 711.306 5798.19 669.151 5869.99 645.867 5965.39 641.457L6075.69 637.046 6075.69 578.224C6075.69 501.756 6042.15 463.521 5975.07 463.521 5925.39 463.521 5868.24 482.639 5803.65 520.873L5735.09 385.584C5817.56 334.114 5905.89 308.38 6002.78 308.38 6090.72 308.38 6158.93 333.38 6204.63 383.378 6250.85 432.885 6273.94 503.226 6273.94 594.4L6273.94 1137.82 6125.07 1137.82ZM5956.44 1006.15C5992.72 1006.15 6021.54 990.218 6042.89 958.357 6064.76 926.004 6075.69 883.114 6075.69 829.685L6075.69 760.57 6014.59 763.511C5969.37 765.961 5936.07 778.707 5914.71 801.744 5893.85 824.783 5883.41 859.096 5883.41 904.681 5883.41 972.327 5907.76 1006.15 5956.44 1006.15ZM6763.1 324.331C6740.34 316.994 6706.46 308.38 6682.75 308.38 6649.34 308.38 6620.03 319.384 6594.85 341.394 6569.67 363.404 6550.47 384.631 6529.16 435.986L6518.52 435.986 6486.62 329.648 6337.75 329.648 6337.75 1137.82 6539 1137.82 6539 712.465C6539 641.057 6543.53 594.989 6568.71 557.817 6593.89 520.157 6629.96 501.326 6676.92 501.326 6698.72 501.326 6717.65 505.531 6731.2 510.423L6763.1 324.331ZM7060.85 1159.08C6963.93 1159.08 6889.73 1126.72 6839.09 1055.52 6788.43 984.316 6763.1 879.728 6763.1 741.75 6763.1 597.388 6786.96 489.608 6834.69 418.408 6882.92 347.209 6954.87 308.38 7055.21 308.38 7085.39 308.38 7119.37 316.028 7152.49 324.867 7185.6 333.706 7225.95 344.854 7252.25 361.549L7186.09 515.631C7145.68 491.571 7109.87 479.542 7078.71 479.542 7037.3 479.542 7007.36 501.392 6988.83 545.093 6970.82 588.305 6961.82 653.364 6961.82 740.276 6961.82 825.224 6970.82 888.812 6988.83 931.041 7006.87 972.778 7036.32 993.646 7077.24 993.646 7125.95 993.646 7176.84 976.46 7229.92 942.089L7229.92 1114.44C7178.8 1146.36 7122.69 1159.08 7060.85 1159.08Z" fill="#B9D9EB" fill-rule="evenodd" transform="matrix(1.00011 0 0 1 366 83.9999)"/><path d="M2292.16 1015.79C2359.13 920.266 2392.61 783.588 2392.61 605.759 2392.61 427.932 2359.36 291.498 2292.9 196.46 2226.42 100.933 2130.89 53.169 2006.32 53.169 1880.26 53.169 1783.75 100.688 1716.79 195.726 1649.82 290.273 1616.34 426.462 1616.34 604.289 1616.34 783.588 1649.82 921 1716.79 1016.53 1783.75 1111.57 1879.77 1159.08 2004.84 1159.08 2129.42 1159.08 2225.19 1111.32 2292.16 1015.79ZM1868.2 885.728C1837.18 821.553 1821.67 728.23 1821.67 605.759 1821.67 482.798 1837.18 389.476 1868.2 325.79 1899.22 261.615 1945.26 229.529 2006.32 229.529 2126.46 229.529 2186.54 354.937 2186.54 605.759 2186.54 856.581 2125.97 981.991 2004.84 981.991 1944.77 981.991 1899.22 949.903 1868.2 885.728ZM2726.21 1137.77C2753.5 1153.53 2782.87 1159.08 2817.96 1159.08 2893.03 1159.08 2954.07 1123.49 2997.46 1047.67 3040.84 971.845 3062.54 867.216 3062.54 733.786 3062.54 598.383 3041.57 493.757 2999.65 419.901 2957.73 345.554 2899.73 308.38 2825.64 308.38 2748.63 308.38 2688.27 354.252 2647.82 435.986L2637.18 435.986 2605.28 329.648 2456.41 329.648 2456.41 1510 2647.82 1510 2647.82 1159.08C2647.82 1145.3 2644.99 1098.44 2637.18 1031.48L2647.82 1031.48C2663.77 1079.33 2699.39 1121.52 2726.21 1137.77ZM2677.21 529.206C2694.29 493.264 2721.81 475.293 2759.83 475.293 2795.41 475.293 2821.49 496.465 2838.08 538.808 2855.13 581.152 2863.66 645.159 2863.66 730.832 2863.66 905.128 2829.55 992.276 2761.3 992.276 2721.81 992.276 2693.54 971.598 2676.49 930.239 2659.43 888.88 2650.9 822.903 2650.9 732.307L2650.9 706.459C2651.88 623.741 2660.64 564.657 2677.21 529.206ZM3437.95 1159.08C3334.89 1159.08 3253.52 1122.75 3193.84 1050.08 3134.65 976.913 3105.07 873.552 3105.07 739.994 3105.07 604.47 3131.95 498.653 3185.7 422.545 3239.46 346.434 3314.41 308.38 3410.58 308.38 3500.33 308.38 3571.11 341.035 3622.89 406.341 3674.68 471.156 3700.56 562.241 3700.56 679.596L3700.56 786.901 3307.11 786.901C3308.6 860.064 3321.32 911.853 3349.92 947.697 3378.53 983.05 3417.98 1000.73 3468.28 1000.73 3532.4 1000.73 3597.99 980.841 3665.05 941.068L3665.05 1102.37C3601.92 1140.18 3526.23 1159.08 3437.95 1159.08ZM3409.11 459.372C3381 459.372 3357.81 474.348 3339.57 504.3 3321.32 533.762 3310.07 586.301 3307.11 648.662L3509.16 648.662C3508.18 588.758 3497.37 536.707 3480.12 505.773 3462.86 474.838 3439.18 459.372 3409.11 459.372ZM4179.08 648.662 4179.08 1137.82 4370.49 1137.82 4370.49 610.361C4370.49 511.675 4351.84 436.673 4314.52 385.356 4277.7 334.04 4221.96 308.38 4147.33 308.38 4103.16 308.38 4064.6 319.235 4031.7 340.947 3998.82 362.164 3973.45 397.991 3955.77 435.986L3945.14 435.986 3918.56 329.648 3764.37 329.648 3764.37 1137.82 3966.41 1137.82 3966.41 749.683C3966.41 649.517 3970.09 581.248 3989.74 539.308 4009.37 496.871 4040.29 475.654 4082.53 475.654 4114.43 475.654 4137.53 490.95 4151.76 521.543 4166 552.137 4179.08 588.957 4179.08 648.662Z" fill="#00A3E0" fill-rule="evenodd" transform="matrix(1.00011 0 0 1 366 83.9999)"/><path d="M8906.28 601.527C8906.28 775.919 8870.61 909.362 8799.32 1001.86 8728.5 1093.87 8626.38 1139.88 8492.92 1139.88L8234.24 1139.88 8234.24 83.4107 8516.78 83.4107C8639.62 83.4107 8735.24 128.936 8803.66 219.986 8872.06 310.554 8906.28 437.734 8906.28 601.527ZM8704.66 607.307C8704.66 371.254 8639.62 253.225 8509.55 253.225L8430.78 253.225 8430.78 967.893 8494.37 967.893C8566.17 967.893 8619.14 938.025 8653.34 878.288 8687.56 818.071 8704.66 727.743 8704.66 607.307Z" fill="#D9E1E2" transform="matrix(1.00011 0 0 1 366 83.9999)"/><path d="M9399.5 1139.88 9361.19 1030.04 9356.85 1030.04C9328.44 1077.25 9299.05 1109.77 9268.7 1127.59 9238.35 1145.42 9200.05 1154.33 9153.81 1154.33 9094.56 1154.33 9047.81 1132.17 9013.62 1087.85 8979.91 1043.53 8963.04 981.864 8963.04 902.859 8963.04 818.071 8986.16 755.204 9032.42 714.256 9079.14 672.824 9148.75 649.942 9241.24 645.606L9348.2 641.272 9348.2 583.462C9348.2 508.309 9315.68 470.733 9250.64 470.733 9202.47 470.733 9147.07 489.521 9084.44 527.096L9017.96 394.136C9097.92 343.553 9184.88 318.261 9278.82 318.261 9364.08 318.261 9428.89 342.83 9473.21 391.968 9518 440.624 9540.41 509.755 9540.41 599.359L9540.41 1139.88 9399.5 1139.88ZM9232.57 1004.02C9267.74 1004.02 9295.69 988.367 9316.4 957.055 9337.58 925.26 9348.2 883.105 9348.2 830.596L9348.2 762.671 9288.95 765.562C9245.09 767.969 9212.83 780.496 9192.12 803.137 9171.87 825.779 9161.77 859.501 9161.77 904.303 9161.77 970.783 9185.35 1004.02 9232.57 1004.02Z" fill="#D9E1E2" transform="matrix(1.00011 0 0 1 366 83.9999)"/><path d="M10083.5 904.303C10083.5 982.827 10060.4 1044.25 10014.1 1088.57 9968.36 1132.41 9900.67 1154.33 9811.07 1154.33 9731.59 1154.33 9665.83 1138.67 9613.79 1107.36L9613.79 940.434C9640.29 958.739 9671.12 973.916 9706.3 985.958 9741.95 998.002 9773.25 1004.02 9800.24 1004.02 9830.1 1004.02 9852.75 996.798 9868.15 982.346 9884.06 967.412 9892.01 947.902 9892.01 923.814 9892.01 899.245 9883.82 877.808 9867.42 859.501 9851.05 841.195 9820.96 818.794 9777.1 792.297 9718.81 757.612 9676.91 720.759 9651.37 681.737 9626.31 642.235 9613.79 595.746 9613.79 542.273 9613.79 473.864 9637.16 419.667 9683.89 379.684 9731.1 339.699 9795.65 319.705 9877.55 319.705 9948.86 319.705 10016 338.495 10079.2 376.071L10016.3 514.091C9964.75 486.15 9919.47 472.179 9880.44 472.179 9855.88 472.179 9837.33 478.683 9824.8 491.69 9812.77 504.695 9806.73 520.595 9806.73 539.383 9806.73 561.061 9814.19 580.329 9829.14 597.19 9844.56 614.051 9872.98 635.008 9914.41 660.059 9964.51 690.408 9999.67 716.182 10019.9 737.38 10040.1 758.575 10055.8 782.663 10066.9 809.641 10078 836.619 10083.5 868.173 10083.5 904.303Z" fill="#D9E1E2" transform="matrix(1.00011 0 0 1 366 83.9999)"/><path d="M10561.6 1139.88 10561.6 660.059C10561.6 542.03 10531.9 483.017 10472.7 483.017 10428.4 483.017 10397.3 506.382 10379.4 553.111 10361.6 599.359 10352.7 666.08 10352.7 753.275L10352.7 1139.88 10160.5 1139.88 10160.5 15.4847 10352.7 15.4847 10352.7 265.509C10352.7 297.787 10349.8 355.356 10344.1 438.215L10354.2 438.215C10392.7 359.21 10452 319.705 10531.9 319.705 10605.6 319.705 10661.3 344.756 10698.8 394.859 10736.4 444.478 10755.2 517.702 10755.2 614.534L10755.2 1139.88 10561.6 1139.88Z" fill="#D9E1E2" transform="matrix(1.00011 0 0 1 366 83.9999)"/><path d="M11229.7 319.705C11302.9 319.705 11360.5 356.077 11402.4 428.821 11444.3 501.565 11465.2 603.936 11465.2 735.934 11465.2 869.377 11444 972.47 11401.6 1045.21 11359.7 1117.96 11301.4 1154.33 11226.8 1154.33 11190.6 1154.33 11158.6 1146.62 11130.7 1131.2 11103.2 1115.31 11077.2 1087.61 11052.6 1048.1L11040.3 1048.1 11007.8 1139.88 10866.2 1139.88 10866.2 15.4847 11058.4 15.4847 11058.4 278.516C11058.4 289.597 11058.2 301.16 11057.7 313.204 11057.2 325.246 11054.1 367.4 11048.3 439.661L11058.4 439.661C11082 395.339 11107.5 364.267 11135 346.443 11162.5 328.619 11194 319.705 11229.7 319.705ZM11163.2 483.017C11126.6 483.017 11100.1 500.121 11083.7 534.323 11067.8 568.528 11059.4 628.745 11058.4 714.979L11058.4 734.487C11058.4 827.946 11066.6 893.705 11083 931.764 11099.8 969.82 11127 988.85 11164.6 988.85 11234 988.85 11268.7 903.58 11268.7 733.043 11268.7 566.359 11233.5 483.017 11163.2 483.017Z" fill="#D9E1E2" transform="matrix(1.00011 0 0 1 366 83.9999)"/><path d="M12152.1 735.934C12152.1 867.931 12124.2 970.783 12068.3 1044.49 12012.4 1117.72 11935.8 1154.33 11838.5 1154.33 11776.8 1154.33 11722.4 1137.47 11675.2 1103.75 11628 1070.02 11591.6 1021.61 11566.1 958.499 11540.5 894.909 11527.8 820.721 11527.8 735.934 11527.8 605.38 11555.5 503.491 11610.9 430.267 11666.3 356.56 11743.1 319.705 11841.4 319.705 11936.3 319.705 12011.7 357.283 12067.6 432.434 12123.9 507.105 12152.1 608.271 12152.1 735.934ZM11724.3 735.934C11724.3 819.758 11733.5 883.105 11751.8 925.981 11770.1 968.856 11799.5 990.294 11840 990.294 11917 990.294 11955.6 905.507 11955.6 735.934 11955.6 651.629 11946.2 588.76 11927.4 547.33 11909.1 505.418 11879.9 484.463 11840 484.463 11799.5 484.463 11770.1 505.418 11751.8 547.33 11733.5 588.76 11724.3 651.629 11724.3 735.934Z" fill="#D9E1E2" transform="matrix(1.00011 0 0 1 366 83.9999)"/><path d="M12637.4 1139.88 12599.1 1030.04 12594.8 1030.04C12566.3 1077.25 12537 1109.77 12506.6 1127.59 12476.3 1145.42 12438 1154.33 12391.7 1154.33 12332.4 1154.33 12285.7 1132.17 12251.5 1087.85 12217.8 1043.53 12200.9 981.864 12200.9 902.859 12200.9 818.071 12224.1 755.204 12270.3 714.256 12317 672.824 12386.7 649.942 12479.2 645.606L12586.1 641.272 12586.1 583.462C12586.1 508.309 12553.6 470.733 12488.5 470.733 12440.4 470.733 12385 489.521 12322.3 527.096L12255.9 394.136C12335.8 343.553 12422.8 318.261 12516.7 318.261 12602 318.261 12666.8 342.83 12711.1 391.968 12755.9 440.624 12778.3 509.755 12778.3 599.359L12778.3 1139.88 12637.4 1139.88ZM12470.5 1004.02C12505.7 1004.02 12533.6 988.367 12554.3 957.055 12575.5 925.26 12586.1 883.105 12586.1 830.596L12586.1 762.671 12526.8 765.562C12483 767.969 12450.7 780.496 12430 803.137 12409.8 825.779 12399.7 859.501 12399.7 904.303 12399.7 970.783 12423.3 1004.02 12470.5 1004.02Z" fill="#D9E1E2" transform="matrix(1.00011 0 0 1 366 83.9999)"/><path d="M13232.5 319.705C13256.1 319.705 13279.2 323.319 13301.9 330.545L13279.5 516.981C13266 512.162 13248.4 509.755 13226.7 509.755 13180 509.755 13144.1 528.302 13119.1 565.395 13094 602.009 13081.5 655.483 13081.5 725.817L13081.5 1139.88 12889.3 1139.88 12889.3 334.882 13047.5 334.882 13069.2 460.616 13075.7 460.616C13096.9 410.033 13120 373.902 13145.1 352.223 13170.1 330.545 13199.3 319.705 13232.5 319.705Z" fill="#D9E1E2" transform="matrix(1.00011 0 0 1 366 83.9999)"/><path d="M13555.2 1154.33C13481 1154.33 13422.5 1117.72 13379.6 1044.49 13336.7 971.266 13315.3 869.377 13315.3 738.824 13315.3 607.79 13336.3 505.178 13378.2 430.99 13420.1 356.8 13477.9 319.705 13551.6 319.705 13588.2 319.705 13619.8 328.859 13646.3 347.166 13673.2 364.99 13698 395.339 13720.7 438.215L13732.3 438.215C13726.5 364.99 13723.6 313.684 13723.6 284.299L13723.6 15.4847 13915.8 15.4847 13915.8 1139.88 13772.7 1139.88 13740.2 1035.1 13733.7 1035.1C13692.7 1114.58 13633.3 1154.33 13555.2 1154.33ZM13617.4 991.74C13653 991.74 13679 975.6 13695.4 943.325 13711.8 910.566 13720.7 851.31 13722.1 765.562L13722.1 740.27C13722.1 646.812 13713.7 581.052 13696.8 542.994 13680.5 504.938 13653.3 485.907 13615.2 485.907 13579.5 485.907 13553.5 507.828 13537.2 551.667 13521.2 595.023 13513.3 658.373 13513.3 741.714 13513.3 825.055 13521.5 887.682 13537.9 929.594 13554.2 971.026 13580.7 991.74 13617.4 991.74Z" fill="#D9E1E2" transform="matrix(1.00011 0 0 1 366 83.9999)"/><path d="M14465.4 904.303C14465.4 982.827 14442.3 1044.25 14396 1088.57 14350.3 1132.41 14282.6 1154.33 14193 1154.33 14113.5 1154.33 14047.7 1138.67 13995.7 1107.36L13995.7 940.434C14022.2 958.739 14053 973.916 14088.2 985.958 14123.8 998.002 14155.1 1004.02 14182.1 1004.02 14212 1004.02 14234.6 996.798 14250 982.346 14265.9 967.412 14273.9 947.902 14273.9 923.814 14273.9 899.245 14265.7 877.808 14249.3 859.501 14232.9 841.195 14202.8 818.794 14159 792.297 14100.7 757.612 14058.8 720.759 14033.3 681.737 14008.2 642.235 13995.7 595.746 13995.7 542.273 13995.7 473.864 14019.1 419.667 14065.8 379.684 14113 339.699 14177.5 319.705 14259.4 319.705 14330.7 319.705 14397.9 338.495 14461.1 376.071L14398.2 514.091C14346.6 486.15 14301.4 472.179 14262.3 472.179 14237.8 472.179 14219.2 478.683 14206.7 491.69 14194.6 504.695 14188.6 520.595 14188.6 539.383 14188.6 561.061 14196.1 580.329 14211 597.19 14226.4 614.051 14254.9 635.008 14296.3 660.059 14346.4 690.408 14381.6 716.182 14401.8 737.38 14422 758.575 14437.7 782.663 14448.8 809.641 14459.8 836.619 14465.4 868.173 14465.4 904.303Z" fill="#D9E1E2" transform="matrix(1.00011 0 0 1 366 83.9999)"/></g></g></g><g clip-path="url(#clip4)"><g clip-path="url(#clip5)"><g clip-path="url(#clip6)"><path d="M146.953 61.8874C143.978 61.8874 141.567 64.2986 141.567 67.273 141.567 111.591 105.64 147.518 61.3223 147.518 58.3479 147.518 55.9367 149.929 55.9367 152.903 55.9367 155.878 58.3479 158.289 61.3223 158.289 111.589 158.289 152.338 117.54 152.338 67.273 152.338 64.2986 149.927 61.8874 146.953 61.8874Z" fill="#00A3E0" transform="matrix(1.00059 0 0 1 481.85 1536)"/><path d="M114.447 96.4015C119.626 87.9527 124.635 76.6875 123.65 60.9165 121.608 28.2475 92.0191 3.46419 64.0787 6.15001 53.1405 7.20148 41.9092 16.1174 42.907 32.0874 43.3407 39.0274 46.7373 43.1234 52.2577 46.2725 57.5119 49.27 64.2624 51.1687 71.915 53.321 81.1586 55.921 91.8811 58.8413 100.122 64.9144 109.999 72.193 116.751 80.6304 114.447 96.4015Z" fill="#B9D9EB" transform="matrix(1.00059 0 0 1 481.85 1536)"/><path d="M9.3274 39.2747C4.14826 47.7235-0.860487 58.9887 0.124948 74.7597 2.16623 107.429 31.7556 132.212 59.6961 129.526 70.6342 128.475 81.8656 119.559 80.8678 103.589 80.4341 96.6488 77.0372 92.5528 71.5171 89.4037 66.2628 86.4062 59.5123 84.5074 51.8597 82.3552 42.6161 79.7552 31.8937 76.8348 23.6528 70.7618 13.7758 63.4831 7.02403 55.0457 9.3274 39.2747Z" fill="#00A3E0" transform="matrix(1.00059 0 0 1 481.85 1536)"/><path d="M862.853 72.5986 862.853 127.345 884.275 127.345 884.275 67.8381C884.275 56.8714 882.133 48.5866 877.846 42.9667 873.559 37.2924 867.094 34.5141 858.687 34.5141 849.566 34.5141 842.256 39.8479 837.86 48.7958L836.67 48.7958C836.993 44.1759 837.289 41.5293 837.503 39.5967 837.724 37.6037 837.86 36.37 837.86 34.5141L837.86 0 816.437 0 816.437 127.345 839.05 127.345 839.05 83.3099C839.05 73.4344 839.381 66.1278 841.414 60.89 843.446 55.5975 846.991 52.9513 852.046 52.9513 858.804 52.9513 862.853 59.2312 862.853 72.5986ZM551.874 120.749C557.662 114.765 560.557 106.145 560.557 94.8907 560.557 87.8632 558.971 81.6045 555.799 76.1143 552.68 70.6242 547.144 65.244 539.184 59.9734 533.284 56.1304 529.137 52.699 526.742 49.6796 524.405 46.66 523.236 43.1188 523.236 39.0562 523.236 34.9385 524.21 31.6994 526.159 29.3387 528.164 26.9229 531.001 25.7152 534.676 25.7152 538.016 25.7152 541.131 26.319 544.026 27.5268 546.975 28.7348 549.786 30.1073 552.459 31.6444L559.971 13.6918C551.345 8.53106 542.357 5.95071 533.005 5.95071 523.208 5.95071 515.389 8.97027 509.545 15.0094 503.756 21.0485 500.862 29.2289 500.862 39.5503 500.862 44.9305 501.585 49.652 503.032 53.7147 504.534 57.7773 506.622 61.4558 509.295 64.7499 512.02 67.989 516 71.393 521.232 74.9616 527.245 79.0242 531.558 82.7301 534.174 86.0789 536.79 89.373 538.099 93.0241 538.099 97.0318 538.099 101.094 536.985 104.306 534.759 106.667 532.588 109.028 529.332 110.208 524.991 110.208 517.364 110.208 508.988 107.271 499.86 101.397L499.86 123.549C507.317 127.667 516.362 129.725 526.995 129.725 537.846 129.725 546.142 126.733 551.874 120.749ZM575.253 117.525C581.932 125.659 591.039 129.725 602.574 129.725 612.454 129.725 620.926 127.61 627.99 123.378L627.99 105.325C620.485 109.776 613.144 112.002 605.968 112.002 600.338 112.002 595.923 110.024 592.722 106.067 589.52 102.055 588.097 96.2589 587.93 88.0705L631.965 88.0705 631.965 76.0608C631.965 62.9264 629.068 52.7321 623.272 45.4779 617.477 38.1688 609.557 34.5141 599.51 34.5141 588.747 34.5141 580.358 38.7732 574.341 47.2915 568.326 55.8096 565.317 67.6527 565.317 82.8205 565.317 97.7685 568.628 109.337 575.253 117.525ZM591.562 56.4415C593.605 53.0894 596.199 51.4132 599.346 51.4132 602.712 51.4132 605.361 53.1441 607.294 56.6065 609.224 60.0686 610.433 65.8941 610.543 72.5986L587.93 72.5986C588.261 65.6192 589.52 59.7389 591.562 56.4415ZM685.522 127.345 681.951 115.444 680.761 115.444C677.481 120.82 674.322 124.651 670.821 126.681 667.317 128.711 662.895 129.725 657.558 129.725 650.717 129.725 645.323 127.202 641.375 122.155 637.483 117.107 635.536 110.085 635.536 101.088 635.536 91.4324 638.204 84.273 643.543 79.6098 648.937 74.8918 656.973 72.2859 667.651 71.7922L679.995 71.2985 679.995 64.7151C679.995 56.1568 676.241 51.8776 668.734 51.8776 663.173 51.8776 656.777 54.0172 649.548 58.2965L641.874 43.1548C651.105 37.3943 660.99 34.5141 671.835 34.5141 681.678 34.5141 689.311 37.3121 694.426 42.9079 699.599 48.4488 702.184 56.3213 702.184 66.5256L702.184 127.345 685.522 127.345ZM666.648 112.609C670.709 112.609 673.934 110.826 676.324 107.26 678.771 103.639 679.995 98.8387 679.995 92.8589L679.995 85.1235 673.156 85.4527C668.096 85.7269 664.368 87.1534 661.978 89.7317 659.643 92.3103 658.474 96.1506 658.474 101.253 658.474 108.823 661.2 112.609 666.648 112.609ZM756.93 36.2993C754.383 35.4781 750.591 34.5141 747.937 34.5141 744.198 34.5141 740.918 35.7457 738.1 38.209 735.281 40.6724 733.132 43.0481 730.747 48.7958L729.557 48.7958 725.987 36.8944 709.325 36.8944 709.325 127.345 731.849 127.345 731.849 79.7395C731.849 71.7475 732.356 66.5915 735.174 62.4313 737.993 58.2163 742.03 56.1088 747.285 56.1088 749.725 56.1088 751.844 56.5793 753.36 57.1268L756.93 36.2993ZM790.254 129.725C779.407 129.725 771.102 126.103 765.435 118.134 759.765 110.165 756.93 98.4597 756.93 83.0172 756.93 66.86 759.601 54.7972 764.942 46.8285 770.341 38.8598 778.393 34.5141 789.623 34.5141 793.001 34.5141 796.805 35.3701 800.511 36.3593 804.217 37.3486 808.732 38.5963 811.677 40.4648L804.272 57.7097C799.749 55.0169 795.741 53.6706 792.254 53.6706 787.619 53.6706 784.268 56.1161 782.195 61.0071 780.178 65.8434 779.172 73.1249 779.172 82.8522 779.172 92.3595 780.178 99.4763 782.195 104.203 784.213 108.874 787.51 111.209 792.089 111.209 797.54 111.209 803.236 109.286 809.177 105.439L809.177 124.729C803.455 128.301 797.176 129.725 790.254 129.725Z" fill="#B9D9EB" fill-rule="evenodd" transform="matrix(1.00059 0 0 1 481.85 1536)"/><path d="M256.54 113.688C264.035 102.997 267.782 87.6996 267.782 67.7969 267.782 47.8944 264.062 32.6246 256.623 21.988 249.182 11.2965 238.49 5.95071 224.548 5.95071 210.44 5.95071 199.639 11.269 192.144 21.9057 184.649 32.4875 180.902 47.7299 180.902 67.6324 180.902 87.6996 184.649 103.079 192.144 113.77 199.639 124.407 210.385 129.725 224.383 129.725 238.326 129.725 249.044 124.38 256.54 113.688ZM209.09 99.1312C205.618 91.9487 203.882 81.504 203.882 67.7969 203.882 54.0351 205.618 43.5904 209.09 36.4626 212.562 29.2801 217.715 25.689 224.548 25.689 237.995 25.689 244.719 39.7248 244.719 67.7969 244.719 95.869 237.94 109.905 224.383 109.905 217.66 109.905 212.562 106.314 209.09 99.1312ZM305.119 127.34C308.173 129.103 311.46 129.725 315.388 129.725 323.79 129.725 330.621 125.742 335.477 117.256 340.333 108.769 342.761 97.0594 342.761 82.1257 342.761 66.9714 340.414 55.2616 335.722 46.9956 331.031 38.6746 324.54 34.5141 316.247 34.5141 307.628 34.5141 300.873 39.6481 296.345 48.7958L295.155 48.7958 291.585 36.8944 274.923 36.8944 274.923 169 296.345 169 296.345 129.725C296.345 128.183 296.029 122.938 295.155 115.444L296.345 115.444C298.131 120.799 302.117 125.522 305.119 127.34ZM299.635 59.2291C301.546 55.2064 304.626 53.1951 308.882 53.1951 312.864 53.1951 315.783 55.5646 317.639 60.3038 319.548 65.0429 320.503 72.2066 320.503 81.7951 320.503 101.302 316.685 111.056 309.047 111.056 304.626 111.056 301.463 108.742 299.554 104.113 297.645 99.4839 296.69 92.0998 296.69 81.9603L296.69 79.0673C296.8 69.8094 297.781 63.1968 299.635 59.2291ZM384.778 129.725C373.243 129.725 364.136 125.659 357.457 117.525 350.832 109.337 347.521 97.7685 347.521 82.8205 347.521 67.6527 350.53 55.8096 356.545 47.2915 362.562 38.7732 370.951 34.5141 381.714 34.5141 391.759 34.5141 399.681 38.1688 405.477 45.4779 411.273 52.7321 414.169 62.9264 414.169 76.0608L414.169 88.0705 370.134 88.0705C370.301 96.2589 371.724 102.055 374.926 106.067 378.127 110.024 382.543 112.002 388.172 112.002 395.348 112.002 402.689 109.776 410.194 105.325L410.194 123.378C403.13 127.61 394.658 129.725 384.778 129.725ZM381.55 51.4132C378.403 51.4132 375.809 53.0894 373.766 56.4415 371.724 59.7389 370.465 65.6192 370.134 72.5986L392.747 72.5986C392.637 65.8941 391.428 60.0686 389.498 56.6065 387.565 53.1441 384.916 51.4132 381.55 51.4132ZM467.726 72.5986 467.726 127.345 489.148 127.345 489.148 68.312C489.148 57.267 487.061 48.8727 482.883 43.1293 478.763 37.3859 472.524 34.5141 464.172 34.5141 459.228 34.5141 454.913 35.729 451.23 38.159 447.55 40.5336 444.711 44.5434 442.733 48.7958L441.543 48.7958 438.567 36.8944 421.31 36.8944 421.31 127.345 443.923 127.345 443.923 83.905C443.923 72.6943 444.335 65.0536 446.534 60.3597 448.731 55.6101 452.192 53.2355 456.919 53.2355 460.49 53.2355 463.075 54.9474 464.667 58.3715 466.262 61.7955 467.726 65.9165 467.726 72.5986Z" fill="#00A3E0" fill-rule="evenodd" transform="matrix(1.00059 0 0 1 481.85 1536)"/><path d="M996.796 67.3232C996.796 86.8413 992.804 101.776 984.826 112.128 976.899 122.427 965.469 127.576 950.533 127.576L921.582 127.576 921.582 9.33538 953.204 9.33538C966.952 9.33538 977.654 14.4305 985.311 24.6209 992.966 34.7574 996.796 48.9915 996.796 67.3232ZM974.231 67.9702C974.231 41.5509 966.952 28.3411 952.394 28.3411L943.578 28.3411 943.578 108.327 950.695 108.327C958.731 108.327 964.66 104.984 968.487 98.2986 972.317 91.559 974.231 81.4495 974.231 67.9702Z" fill="#D9E1E2" transform="matrix(1.00059 0 0 1 481.85 1536)"/><path d="M1052 127.576 1047.71 115.283 1047.22 115.283C1044.04 120.566 1040.76 124.206 1037.36 126.201 1033.96 128.196 1029.67 129.193 1024.5 129.193 1017.87 129.193 1012.64 126.713 1008.81 121.753 1005.04 116.792 1003.15 109.891 1003.15 101.049 1003.15 91.559 1005.74 84.5229 1010.91 79.9399 1016.14 75.3029 1023.93 72.7419 1034.29 72.2566L1046.26 71.7715 1046.26 65.3014C1046.26 56.8902 1042.62 52.6847 1035.34 52.6847 1029.95 52.6847 1023.75 54.7875 1016.74 58.993L1009.3 44.1119C1018.24 38.4506 1027.98 35.62 1038.49 35.62 1048.03 35.62 1055.29 38.3697 1060.25 43.8693 1065.26 49.315 1067.77 57.0521 1067.77 67.0807L1067.77 127.576 1052 127.576ZM1033.31 112.371C1037.25 112.371 1040.38 110.619 1042.7 107.114 1045.07 103.556 1046.26 98.8377 1046.26 92.9608L1046.26 85.3586 1039.62 85.6821C1034.72 85.9516 1031.11 87.3535 1028.79 89.8876 1026.52 92.4216 1025.39 96.1958 1025.39 101.21 1025.39 108.651 1028.03 112.371 1033.31 112.371Z" fill="#D9E1E2" transform="matrix(1.00059 0 0 1 481.85 1536)"/><path d="M1128.55 101.21C1128.55 109.999 1125.96 116.873 1120.79 121.833 1115.67 126.74 1108.09 129.193 1098.06 129.193 1089.17 129.193 1081.81 127.441 1075.98 123.936L1075.98 105.254C1078.95 107.303 1082.4 109.001 1086.34 110.349 1090.32 111.697 1093.83 112.371 1096.85 112.371 1100.19 112.371 1102.73 111.562 1104.45 109.945 1106.23 108.273 1107.12 106.09 1107.12 103.394 1107.12 100.644 1106.2 98.2448 1104.37 96.1958 1102.54 94.1471 1099.17 91.64 1094.26 88.6744 1087.73 84.7924 1083.05 80.6678 1080.19 76.3005 1077.38 71.8793 1075.98 66.6763 1075.98 60.6915 1075.98 53.0351 1078.6 46.9694 1083.83 42.4945 1089.11 38.0193 1096.33 35.7816 1105.5 35.7816 1113.48 35.7816 1121 37.8846 1128.07 42.0901L1121.03 57.5374C1115.26 54.4102 1110.19 52.8466 1105.82 52.8466 1103.08 52.8466 1101 53.5745 1099.6 55.0303 1098.25 56.4858 1097.57 58.2653 1097.57 60.368 1097.57 62.7943 1098.41 64.9508 1100.08 66.8379 1101.81 68.725 1104.99 71.0705 1109.63 73.8742 1115.23 77.2709 1119.17 80.1556 1121.43 82.528 1123.7 84.9002 1125.45 87.5961 1126.69 90.6155 1127.93 93.6349 1128.55 97.1665 1128.55 101.21Z" fill="#D9E1E2" transform="matrix(1.00059 0 0 1 481.85 1536)"/><path d="M1182.06 127.576 1182.06 73.8742C1182.06 60.6644 1178.74 54.0596 1172.11 54.0596 1167.15 54.0596 1163.67 56.6746 1161.67 61.9045 1159.68 67.0807 1158.68 74.5481 1158.68 84.307L1158.68 127.576 1137.17 127.576 1137.17 1.73306 1158.68 1.73306 1158.68 29.7159C1158.68 33.3285 1158.36 39.7717 1157.71 49.0453L1158.84 49.0453C1163.16 40.203 1169.79 35.7816 1178.74 35.7816 1186.99 35.7816 1193.22 38.5854 1197.42 44.1928 1201.63 49.7463 1203.73 57.9416 1203.73 68.779L1203.73 127.576 1182.06 127.576Z" fill="#D9E1E2" transform="matrix(1.00059 0 0 1 481.85 1536)"/><path d="M1256.83 35.7816C1265.03 35.7816 1271.47 39.8524 1276.16 47.9939 1280.85 56.1354 1283.19 67.5929 1283.19 82.3661 1283.19 97.3012 1280.82 108.839 1276.08 116.981 1271.39 125.122 1264.86 129.193 1256.51 129.193 1252.46 129.193 1248.88 128.33 1245.75 126.605 1242.68 124.826 1239.77 121.726 1237.01 117.304L1235.64 117.304 1232 127.576 1216.15 127.576 1216.15 1.73306 1237.66 1.73306 1237.66 31.1717C1237.66 32.4118 1237.64 33.706 1237.58 35.054 1237.53 36.4017 1237.18 41.1196 1236.53 49.2071L1237.66 49.2071C1240.3 44.2466 1243.16 40.769 1246.24 38.7741 1249.31 36.7792 1252.84 35.7816 1256.83 35.7816ZM1249.39 54.0596C1245.29 54.0596 1242.33 55.9738 1240.49 59.8018 1238.71 63.63 1237.77 70.3695 1237.66 80.0208L1237.66 82.2043C1237.66 92.6642 1238.58 100.024 1240.41 104.284 1242.3 108.543 1245.35 110.673 1249.55 110.673 1257.32 110.673 1261.2 101.129 1261.2 82.0427 1261.2 63.3872 1257.26 54.0596 1249.39 54.0596Z" fill="#D9E1E2" transform="matrix(1.00059 0 0 1 481.85 1536)"/><path d="M1360.07 82.3661C1360.07 97.1394 1356.94 108.651 1350.69 116.9 1344.44 125.096 1335.86 129.193 1324.97 129.193 1318.07 129.193 1311.98 127.306 1306.69 123.532 1301.41 119.758 1297.34 114.339 1294.48 107.276 1291.63 100.159 1290.2 91.8556 1290.2 82.3661 1290.2 67.7545 1293.3 56.3511 1299.5 48.1558 1305.7 39.9064 1314.3 35.7816 1325.3 35.7816 1335.92 35.7816 1344.36 39.9873 1350.61 48.3983 1356.92 56.7555 1360.07 68.078 1360.07 82.3661ZM1312.19 82.3661C1312.19 91.7478 1313.22 98.8377 1315.27 103.636 1317.32 108.435 1320.61 110.834 1325.13 110.834 1333.76 110.834 1338.07 101.345 1338.07 82.3661 1338.07 72.9307 1337.02 65.8943 1334.92 61.2575 1332.87 56.5667 1329.61 54.2214 1325.13 54.2214 1320.61 54.2214 1317.32 56.5667 1315.27 61.2575 1313.22 65.8943 1312.19 72.9307 1312.19 82.3661Z" fill="#D9E1E2" transform="matrix(1.00059 0 0 1 481.85 1536)"/><path d="M1414.39 127.576 1410.1 115.283 1409.61 115.283C1406.43 120.566 1403.14 124.206 1399.75 126.201 1396.35 128.196 1392.06 129.193 1386.89 129.193 1380.26 129.193 1375.03 126.713 1371.2 121.753 1367.42 116.792 1365.54 109.891 1365.54 101.049 1365.54 91.559 1368.13 84.5229 1373.3 79.9399 1378.53 75.3029 1386.32 72.7419 1396.67 72.2566L1408.64 71.7715 1408.64 65.3014C1408.64 56.8902 1405 52.6847 1397.72 52.6847 1392.33 52.6847 1386.13 54.7875 1379.12 58.993L1371.68 44.1119C1380.63 38.4506 1390.36 35.62 1400.88 35.62 1410.42 35.62 1417.67 38.3697 1422.63 43.8693 1427.65 49.315 1430.16 57.0521 1430.16 67.0807L1430.16 127.576 1414.39 127.576ZM1395.7 112.371C1399.64 112.371 1402.77 110.619 1405.08 107.114 1407.46 103.556 1408.64 98.8377 1408.64 92.9608L1408.64 85.3586 1402.01 85.6821C1397.1 85.9516 1393.49 87.3535 1391.17 89.8876 1388.91 92.4216 1387.78 96.1958 1387.78 101.21 1387.78 108.651 1390.42 112.371 1395.7 112.371Z" fill="#D9E1E2" transform="matrix(1.00059 0 0 1 481.85 1536)"/><path d="M1480.99 35.7816C1483.63 35.7816 1486.22 36.186 1488.76 36.9948L1486.25 57.8609C1484.74 57.3215 1482.77 57.0521 1480.34 57.0521 1475.11 57.0521 1471.1 59.1279 1468.29 63.2794 1465.49 67.3773 1464.09 73.362 1464.09 81.2338L1464.09 127.576 1442.58 127.576 1442.58 37.4802 1460.29 37.4802 1462.71 51.5524 1463.44 51.5524C1465.81 45.8912 1468.4 41.8473 1471.21 39.4211 1474.01 36.9948 1477.27 35.7816 1480.99 35.7816Z" fill="#D9E1E2" transform="matrix(1.00059 0 0 1 481.85 1536)"/><path d="M1517.11 129.193C1508.8 129.193 1502.25 125.096 1497.46 116.9 1492.66 108.705 1490.26 97.3012 1490.26 82.6896 1490.26 68.0242 1492.6 56.5398 1497.29 48.2367 1501.98 39.9333 1508.45 35.7816 1516.7 35.7816 1520.8 35.7816 1524.33 36.8061 1527.3 38.855 1530.32 40.85 1533.09 44.2466 1535.63 49.0453L1536.92 49.0453C1536.28 40.85 1535.95 35.1078 1535.95 31.8189L1535.95 1.73306 1557.46 1.73306 1557.46 127.576 1541.45 127.576 1537.81 115.849 1537.08 115.849C1532.5 124.745 1525.84 129.193 1517.11 129.193ZM1524.06 110.996C1528.05 110.996 1530.96 109.19 1532.8 105.577 1534.63 101.911 1535.63 95.2792 1535.79 85.6821L1535.79 82.8515C1535.79 72.3916 1534.84 65.0317 1532.96 60.7722 1531.12 56.5129 1528.08 54.3831 1523.82 54.3831 1519.83 54.3831 1516.92 56.8364 1515.09 61.7429 1513.31 66.5953 1512.42 73.6855 1512.42 83.0131 1512.42 92.3407 1513.33 99.3499 1515.17 104.041 1517 108.678 1519.97 110.996 1524.06 110.996Z" fill="#D9E1E2" transform="matrix(1.00059 0 0 1 481.85 1536)"/><path d="M1618.98 101.21C1618.98 109.999 1616.39 116.873 1611.21 121.833 1606.09 126.74 1598.51 129.193 1588.48 129.193 1579.59 129.193 1572.23 127.441 1566.41 123.936L1566.41 105.254C1569.37 107.303 1572.82 109.001 1576.76 110.349 1580.75 111.697 1584.25 112.371 1587.27 112.371 1590.61 112.371 1593.15 111.562 1594.87 109.945 1596.65 108.273 1597.54 106.09 1597.54 103.394 1597.54 100.644 1596.63 98.2448 1594.79 96.1958 1592.96 94.1471 1589.59 91.64 1584.68 88.6744 1578.16 84.7924 1573.47 80.6678 1570.61 76.3005 1567.81 71.8793 1566.41 66.6763 1566.41 60.6915 1566.41 53.0351 1569.02 46.9694 1574.25 42.4945 1579.53 38.0193 1586.76 35.7816 1595.93 35.7816 1603.9 35.7816 1611.43 37.8846 1618.49 42.0901L1611.45 57.5374C1605.68 54.4102 1600.62 52.8466 1596.25 52.8466 1593.5 52.8466 1591.42 53.5745 1590.02 55.0303 1588.67 56.4858 1588 58.2653 1588 60.368 1588 62.7943 1588.83 64.9508 1590.51 66.8379 1592.23 68.725 1595.41 71.0705 1600.05 73.8742 1605.66 77.2709 1609.59 80.1556 1611.86 82.528 1614.12 84.9002 1615.87 87.5961 1617.11 90.6155 1618.35 93.6349 1618.98 97.1665 1618.98 101.21Z" fill="#D9E1E2" transform="matrix(1.00059 0 0 1 481.85 1536)"/></g></g></g></g></svg>