<svg width="1519" height="1549" xmlns="http://www.w3.org/2000/svg" xmlns:xlink="http://www.w3.org/1999/xlink" overflow="hidden"><defs><clipPath id="clip0"><rect x="1965" y="243" width="1519" height="1549"/></clipPath><clipPath id="clip1"><rect x="1964" y="243" width="1520" height="1450"/></clipPath><clipPath id="clip2"><rect x="1964" y="243" width="1520" height="1450"/></clipPath><clipPath id="clip3"><rect x="1964" y="243" width="1520" height="1513"/></clipPath><clipPath id="clip4"><rect x="1964" y="243" width="1520" height="1513"/></clipPath><clipPath id="clip5"><rect x="1964" y="243" width="14506" height="1513"/></clipPath><clipPath id="clip6"><rect x="2071" y="1679" width="1378" height="113"/></clipPath><clipPath id="clip7"><rect x="2071" y="1679" width="1344" height="110"/></clipPath><clipPath id="clip8"><rect x="2036" y="230" width="1379" height="1559"/></clipPath><clipPath id="clip9"><rect x="2036" y="230" width="1379" height="1559"/></clipPath><clipPath id="clip10"><rect x="2470" y="1685" width="449" height="105"/></clipPath><clipPath id="clip11"><rect x="2470" y="1685" width="449" height="105"/></clipPath><clipPath id="clip12"><rect x="2371" y="1685" width="989" height="105"/></clipPath></defs><g clip-path="url(#clip0)" transform="translate(-1965 -243)"><g clip-path="url(#clip1)"><g clip-path="url(#clip2)"><g clip-path="url(#clip3)"><g clip-path="url(#clip4)"><g clip-path="url(#clip5)"><path d="M1314.5 553.584C1287.89 553.584 1266.32 575.152 1266.32 601.758 1266.32 998.183 944.954 1319.55 548.529 1319.55 521.923 1319.55 500.355 1341.12 500.355 1367.73 500.355 1394.33 521.923 1415.9 548.529 1415.9 998.164 1415.9 1362.67 1051.4 1362.67 601.758 1362.67 575.152 1341.1 553.584 1314.5 553.584Z" fill="#00A3E0" transform="matrix(1.0003 0 0 1 1965 243)"/><path d="M1023.74 862.313C1070.06 786.738 1114.86 685.971 1106.05 544.899 1087.79 252.675 823.113 30.9872 573.185 55.012 475.343 64.4173 374.878 144.17 383.804 287.022 387.683 349.101 418.067 385.739 467.446 413.908 514.446 440.72 574.829 457.705 643.281 476.957 725.966 500.214 821.878 526.337 895.593 580.66 983.941 645.768 1044.34 721.24 1023.74 862.313Z" fill="#B9D9EB" transform="matrix(1.0003 0 0 1 1965 243)"/><path d="M83.4338 351.312C37.1063 426.888-7.69707 527.654 1.11766 668.727 19.377 960.951 284.054 1182.64 533.983 1158.61 631.824 1149.21 732.289 1069.46 723.364 926.604 719.484 864.525 689.099 827.886 639.721 799.717 592.722 772.905 532.339 755.921 463.886 736.669 381.202 713.411 285.29 687.289 211.574 632.966 123.225 567.858 62.83 492.385 83.4338 351.312Z" fill="#00A3E0" transform="matrix(1.0003 0 0 1 1965 243)"/><path d="M7718.24 649.396 7718.24 1139.11 7909.86 1139.11 7909.86 606.813C7909.86 508.716 7890.7 434.608 7852.35 384.338 7814 333.581 7756.18 308.729 7680.97 308.729 7599.38 308.729 7534 356.44 7494.67 436.479L7484.02 436.479C7486.92 395.155 7489.56 371.48 7491.48 354.193 7493.46 336.366 7494.67 325.331 7494.67 308.729L7494.67 0 7303.05 0 7303.05 1139.11 7505.31 1139.11 7505.31 745.208C7505.31 656.872 7508.28 591.515 7526.46 544.663 7544.64 497.32 7576.34 473.65 7621.57 473.65 7682.01 473.65 7718.24 529.824 7718.24 649.396ZM4936.52 1080.1C4988.3 1026.57 5014.19 949.472 5014.19 848.799 5014.19 785.938 5000.01 729.953 4971.63 680.844 4943.74 631.735 4894.21 583.609 4823.01 536.463 4770.23 502.088 4733.14 471.394 4711.72 444.385 4690.81 417.374 4680.36 385.699 4680.36 349.358 4680.36 312.525 4689.07 283.552 4706.5 262.435 4724.43 240.826 4749.81 230.022 4782.69 230.022 4812.56 230.022 4840.43 235.424 4866.32 246.227 4892.7 257.034 4917.85 269.309 4941.76 283.06L5008.95 122.473C4931.8 76.3105 4851.39 53.2292 4767.74 53.2292 4680.1 53.2292 4610.16 80.2392 4557.89 134.26 4506.1 188.28 4480.21 261.454 4480.21 353.778 4480.21 401.903 4486.69 444.138 4499.64 480.478 4513.07 516.819 4531.74 549.723 4555.65 579.189 4580.03 608.162 4615.63 638.612 4662.43 670.532 4716.21 706.873 4754.8 740.022 4778.19 769.977 4801.59 799.443 4813.3 832.102 4813.3 867.951 4813.3 904.291 4803.34 933.021 4783.43 954.138 4764.02 975.255 4734.88 985.813 4696.05 985.813 4627.83 985.813 4552.91 959.539 4471.25 906.993L4471.25 1105.15C4537.96 1141.98 4618.87 1160.39 4713.98 1160.39 4811.05 1160.39 4885.24 1133.63 4936.52 1080.1ZM5145.65 1051.27C5205.38 1124.02 5286.85 1160.39 5390.03 1160.39 5478.41 1160.39 5554.19 1141.47 5617.38 1103.62L5617.38 942.133C5550.25 981.951 5484.59 1001.86 5420.39 1001.86 5370.04 1001.86 5330.55 984.163 5301.9 948.77 5273.27 912.885 5260.54 861.037 5259.05 787.792L5652.94 787.792 5652.94 680.365C5652.94 562.877 5627.03 471.689 5575.18 406.801 5523.33 341.421 5452.5 308.729 5362.63 308.729 5266.34 308.729 5191.32 346.826 5137.49 423.023 5083.69 499.217 5056.78 605.154 5056.78 740.832 5056.78 874.541 5086.39 978.019 5145.65 1051.27ZM5291.53 504.871C5309.8 474.885 5333.01 459.892 5361.16 459.892 5391.26 459.892 5414.96 475.375 5432.25 506.345 5449.52 537.314 5460.33 589.424 5461.31 649.396L5259.05 649.396C5262.01 586.965 5273.27 534.366 5291.53 504.871ZM6132 1139.11 6100.07 1032.65 6089.42 1032.65C6060.08 1080.74 6031.83 1115 6000.5 1133.16 5969.17 1151.32 5929.6 1160.39 5881.87 1160.39 5820.68 1160.39 5772.43 1137.83 5737.11 1092.68 5702.3 1047.52 5684.88 984.714 5684.88 904.234 5684.88 817.865 5708.74 753.823 5756.51 712.111 5804.75 669.908 5876.63 646.598 5972.14 642.183L6082.57 637.767 6082.57 578.878C6082.57 502.324 6048.99 464.046 5981.83 464.046 5932.1 464.046 5874.88 483.185 5810.22 521.463L5741.58 386.02C5824.14 334.492 5912.57 308.729 6009.57 308.729 6097.61 308.729 6165.9 333.757 6211.65 383.812 6257.92 433.375 6281.04 503.796 6281.04 595.073L6281.04 1139.11 6132 1139.11ZM5963.18 1007.29C5999.5 1007.29 6028.35 991.339 6049.73 959.442 6071.62 927.052 6082.57 884.114 6082.57 830.624L6082.57 761.431 6021.4 764.375C5976.13 766.828 5942.79 779.588 5921.4 802.651 5900.52 825.716 5890.07 860.068 5890.07 905.705 5890.07 973.427 5914.45 1007.29 5963.18 1007.29ZM6770.75 324.698C6747.97 317.353 6714.05 308.729 6690.31 308.729 6656.87 308.729 6627.52 319.745 6602.31 341.78 6577.11 363.815 6557.88 385.066 6536.55 436.479L6525.9 436.479 6493.96 330.021 6344.92 330.021 6344.92 1139.11 6546.4 1139.11 6546.4 713.271C6546.4 641.783 6550.94 595.662 6576.14 558.448 6601.35 520.746 6637.46 501.893 6684.48 501.893 6706.3 501.893 6725.25 506.103 6738.82 511.001L6770.75 324.698ZM7068.84 1160.39C6971.81 1160.39 6897.53 1128 6846.83 1056.71 6796.11 985.43 6770.75 880.724 6770.75 742.589 6770.75 598.064 6794.64 490.162 6842.43 418.882 6890.71 347.602 6962.74 308.729 7063.19 308.729 7093.41 308.729 7127.43 316.386 7160.59 325.235 7193.73 334.084 7234.13 345.244 7260.46 361.958L7194.22 516.215C7153.77 492.127 7117.92 480.085 7086.72 480.085 7045.26 480.085 7015.29 501.959 6996.74 545.71 6978.71 588.971 6969.7 654.103 6969.7 741.114 6969.7 826.158 6978.71 889.818 6996.74 932.095 7014.8 973.879 7044.28 994.771 7085.25 994.771 7134.02 994.771 7184.96 977.565 7238.1 943.155L7238.1 1115.7C7186.92 1147.66 7130.75 1160.39 7068.84 1160.39Z" fill="#B9D9EB" fill-rule="evenodd" transform="matrix(1.0003 0 0 1 1965 243)"/><path d="M2294.75 1016.94C2361.8 921.307 2395.32 784.475 2395.32 606.445 2395.32 428.416 2362.03 291.828 2295.49 196.682 2228.94 101.047 2133.3 53.2292 2008.59 53.2292 1882.39 53.2292 1785.77 100.802 1718.73 195.948 1651.69 290.602 1618.17 426.945 1618.17 604.973 1618.17 784.475 1651.69 922.042 1718.73 1017.68 1785.77 1112.83 1881.9 1160.39 2007.11 1160.39 2131.83 1160.39 2227.71 1112.58 2294.75 1016.94ZM1870.31 886.73C1839.26 822.483 1823.73 729.054 1823.73 606.445 1823.73 483.344 1839.26 389.917 1870.31 326.159 1901.37 261.911 1947.46 229.789 2008.59 229.789 2128.87 229.789 2189.01 355.339 2189.01 606.445 2189.01 857.55 2128.38 983.102 2007.11 983.102 1946.97 983.102 1901.37 950.978 1870.31 886.73ZM2729.3 1139.06C2756.62 1154.84 2786.02 1160.39 2821.15 1160.39 2896.3 1160.39 2957.41 1124.76 3000.85 1048.86 3044.28 972.945 3066.01 868.198 3066.01 734.617 3066.01 599.06 3045.01 494.316 3003.04 420.376 2961.08 345.945 2903.01 308.729 2828.84 308.729 2751.74 308.729 2691.31 354.653 2650.82 436.479L2640.16 436.479 2608.23 330.021 2459.19 330.021 2459.19 1511.71 2650.82 1511.71 2650.82 1160.39C2650.82 1146.6 2647.98 1099.68 2640.16 1032.65L2650.82 1032.65C2666.78 1080.55 2702.45 1122.79 2729.3 1139.06ZM2680.24 529.805C2697.34 493.822 2724.89 475.831 2762.95 475.831 2798.57 475.831 2824.68 497.027 2841.29 539.418 2858.36 581.81 2866.9 645.889 2866.9 731.659 2866.9 906.152 2832.75 993.399 2764.43 993.399 2724.89 993.399 2696.59 972.698 2679.52 931.292 2662.44 889.886 2653.9 823.834 2653.9 733.136L2653.9 707.259C2654.88 624.447 2663.65 565.296 2680.24 529.805ZM3441.84 1160.39C3338.66 1160.39 3257.2 1124.02 3197.45 1051.27 3138.2 978.019 3108.58 874.541 3108.58 740.832 3108.58 605.154 3135.49 499.217 3189.31 423.023 3243.13 346.826 3318.16 308.729 3414.44 308.729 3504.29 308.729 3575.15 341.421 3626.99 406.801 3678.84 471.689 3704.75 562.877 3704.75 680.365L3704.75 787.792 3310.85 787.792C3312.34 861.037 3325.08 912.885 3353.71 948.77 3382.35 984.163 3421.85 1001.86 3472.21 1001.86 3536.4 1001.86 3602.06 981.951 3669.2 942.133L3669.2 1103.62C3606 1141.47 3530.22 1160.39 3441.84 1160.39ZM3412.97 459.892C3384.83 459.892 3361.61 474.885 3343.35 504.871 3325.08 534.366 3313.82 586.965 3310.85 649.396L3513.13 649.396C3512.15 589.424 3501.33 537.314 3484.06 506.345 3466.78 475.375 3443.07 459.892 3412.97 459.892ZM4183.81 649.396 4183.81 1139.11 4375.44 1139.11 4375.44 611.052C4375.44 512.254 4356.77 437.167 4319.4 385.792 4282.54 334.418 4226.74 308.729 4152.02 308.729 4107.8 308.729 4069.2 319.596 4036.26 341.333 4003.35 362.574 3977.95 398.441 3960.25 436.479L3949.6 436.479 3922.99 330.021 3768.63 330.021 3768.63 1139.11 3970.9 1139.11 3970.9 750.531C3970.9 650.252 3974.58 581.906 3994.26 539.918 4013.91 497.433 4044.86 476.192 4087.15 476.192 4119.09 476.192 4142.21 491.506 4156.46 522.133 4170.71 552.762 4183.81 589.624 4183.81 649.396Z" fill="#00A3E0" fill-rule="evenodd" transform="matrix(1.0003 0 0 1 1965 243)"/><path d="M8916.36 602.208C8916.36 776.797 8880.65 910.391 8809.28 1002.99 8738.38 1095.11 8636.14 1141.17 8502.53 1141.17L8243.56 1141.17 8243.56 83.5051 8526.42 83.5051C8649.4 83.5051 8745.13 129.082 8813.62 220.235 8882.1 310.905 8916.36 438.229 8916.36 602.208ZM8714.51 607.994C8714.51 371.674 8649.4 253.512 8519.18 253.512L8440.32 253.512 8440.32 968.988 8503.98 968.988C8575.87 968.988 8628.89 939.087 8663.13 879.282 8697.39 818.997 8714.51 728.567 8714.51 607.994Z" fill="#D9E1E2" transform="matrix(1.0003 0 0 1 1965 243)"/><path d="M9410.14 1141.17 9371.79 1031.21 9367.44 1031.21C9339 1078.47 9309.57 1111.03 9279.19 1128.87 9248.81 1146.72 9210.46 1155.64 9164.17 1155.64 9104.85 1155.64 9058.05 1133.45 9023.82 1089.08 8990.07 1044.71 8973.18 982.975 8973.18 903.881 8973.18 818.997 8996.33 756.059 9042.64 715.064 9089.42 673.585 9159.1 650.678 9251.7 646.337L9358.78 641.998 9358.78 584.122C9358.78 508.884 9326.22 471.266 9261.11 471.266 9212.88 471.266 9157.42 490.075 9094.72 527.693L9028.17 394.582C9108.22 343.942 9195.28 318.621 9289.32 318.621 9374.68 318.621 9439.56 343.218 9483.93 392.412 9528.77 441.123 9551.21 510.332 9551.21 600.037L9551.21 1141.17 9410.14 1141.17ZM9243.02 1005.16C9278.23 1005.16 9306.21 989.486 9326.94 958.138 9348.15 926.307 9358.78 884.104 9358.78 831.536L9358.78 763.534 9299.46 766.428C9255.55 768.838 9223.26 781.379 9202.52 804.046 9182.25 826.714 9172.14 860.474 9172.14 905.326 9172.14 971.882 9195.75 1005.16 9243.02 1005.16Z" fill="#D9E1E2" transform="matrix(1.0003 0 0 1 1965 243)"/><path d="M10094.9 905.326C10094.9 983.939 10071.8 1045.43 10025.4 1089.8 9979.64 1133.69 9911.88 1155.64 9822.17 1155.64 9742.6 1155.64 9676.77 1139.96 9624.67 1108.61L9624.67 941.498C9651.2 959.824 9682.07 975.018 9717.29 987.074 9752.98 999.132 9784.31 1005.16 9811.33 1005.16 9841.22 1005.16 9863.9 997.926 9879.32 983.458 9895.25 968.507 9903.21 948.975 9903.21 924.86 9903.21 900.263 9895.01 878.801 9878.59 860.474 9862.2 842.147 9832.08 819.721 9788.17 793.194 9729.81 758.469 9687.86 721.575 9662.29 682.509 9637.2 642.962 9624.67 596.42 9624.67 542.887 9624.67 474.4 9648.07 420.142 9694.85 380.114 9742.11 340.083 9806.74 320.067 9888.73 320.067 9960.12 320.067 10027.3 338.878 10090.6 376.497L10027.6 514.673C9976.03 486.7 9930.7 472.713 9891.62 472.713 9867.03 472.713 9848.46 479.225 9835.92 492.246 9823.88 505.266 9817.83 521.184 9817.83 539.993 9817.83 561.696 9825.3 580.986 9840.26 597.866 9855.7 614.746 9884.15 635.727 9925.63 660.806 9975.79 691.189 10011 716.993 10031.2 738.215 10051.5 759.434 10067.2 783.549 10078.3 810.557 10089.4 837.566 10094.9 869.156 10094.9 905.326Z" fill="#D9E1E2" transform="matrix(1.0003 0 0 1 1965 243)"/><path d="M10573.6 1141.17 10573.6 660.806C10573.6 542.643 10543.8 483.564 10484.6 483.564 10440.2 483.564 10409.1 506.955 10391.1 553.737 10373.3 600.037 10364.4 666.834 10364.4 754.128L10364.4 1141.17 10172 1141.17 10172 15.5022 10364.4 15.5022 10364.4 265.81C10364.4 298.124 10361.5 355.758 10355.8 438.711L10365.9 438.711C10404.5 359.617 10463.8 320.067 10543.8 320.067 10617.6 320.067 10673.4 345.146 10710.9 395.306 10748.6 444.981 10767.4 518.288 10767.4 615.229L10767.4 1141.17 10573.6 1141.17Z" fill="#D9E1E2" transform="matrix(1.0003 0 0 1 1965 243)"/><path d="M11242.4 320.067C11315.7 320.067 11373.4 356.48 11415.3 429.306 11457.3 502.133 11478.2 604.62 11478.2 736.767 11478.2 870.361 11457 973.571 11414.5 1046.39 11372.6 1119.23 11314.2 1155.64 11239.5 1155.64 11203.3 1155.64 11171.2 1147.92 11143.3 1132.48 11115.8 1116.57 11089.7 1088.84 11065.1 1049.29L11052.8 1049.29 11020.3 1141.17 10878.5 1141.17 10878.5 15.5022 11070.9 15.5022 11070.9 278.831C11070.9 289.925 11070.7 301.501 11070.2 313.558 11069.7 325.614 11066.6 367.816 11060.8 440.159L11070.9 440.159C11094.5 395.786 11120.1 364.679 11147.6 346.835 11175.1 328.991 11206.7 320.067 11242.4 320.067ZM11175.8 483.564C11139.2 483.564 11112.7 500.687 11096.2 534.928 11080.3 569.171 11071.9 629.457 11070.9 715.788L11070.9 735.318C11070.9 828.883 11079.1 894.716 11095.5 932.819 11112.4 970.918 11139.6 989.969 11177.2 989.969 11246.7 989.969 11281.5 904.603 11281.5 733.873 11281.5 567 11246.2 483.564 11175.8 483.564Z" fill="#D9E1E2" transform="matrix(1.0003 0 0 1 1965 243)"/><path d="M12165.9 736.767C12165.9 868.913 12137.9 971.882 12082 1045.67 12026 1118.98 11949.3 1155.64 11851.9 1155.64 11790.1 1155.64 11735.7 1138.76 11688.4 1105 11641.2 1071.23 11604.7 1022.77 11579.2 959.584 11553.6 895.922 11540.8 821.65 11540.8 736.767 11540.8 606.065 11568.6 504.061 11624 430.754 11679.5 356.964 11756.4 320.067 11854.8 320.067 11949.8 320.067 12025.3 357.687 12081.3 432.923 12137.6 507.679 12165.9 608.959 12165.9 736.767ZM11737.6 736.767C11737.6 820.686 11746.8 884.104 11765.1 927.029 11783.4 969.953 11812.9 991.415 11853.4 991.415 11930.5 991.415 11969.1 906.532 11969.1 736.767 11969.1 652.367 11959.7 589.426 11940.9 547.949 11922.6 505.99 11893.3 485.011 11853.4 485.011 11812.9 485.011 11783.4 505.99 11765.1 547.949 11746.8 589.426 11737.6 652.367 11737.6 736.767Z" fill="#D9E1E2" transform="matrix(1.0003 0 0 1 1965 243)"/><path d="M12651.7 1141.17 12613.4 1031.21 12609.1 1031.21C12580.5 1078.47 12551.2 1111.03 12520.8 1128.87 12490.4 1146.72 12452.1 1155.64 12405.7 1155.64 12346.4 1155.64 12299.6 1133.45 12265.4 1089.08 12231.6 1044.71 12214.7 982.975 12214.7 903.881 12214.7 818.997 12237.9 756.059 12284.2 715.064 12330.9 673.585 12400.7 650.678 12493.3 646.337L12600.3 641.998 12600.3 584.122C12600.3 508.884 12567.8 471.266 12502.6 471.266 12454.5 471.266 12399 490.075 12336.2 527.693L12269.8 394.582C12349.8 343.942 12436.9 318.621 12530.9 318.621 12616.3 318.621 12681.1 343.218 12725.5 392.412 12770.3 441.123 12792.8 510.332 12792.8 600.037L12792.8 1141.17 12651.7 1141.17ZM12484.6 1005.16C12519.9 1005.16 12547.8 989.486 12568.5 958.138 12589.7 926.307 12600.3 884.104 12600.3 831.536L12600.3 763.534 12541 766.428C12497.1 768.838 12464.8 781.379 12444.1 804.046 12423.8 826.714 12413.7 860.474 12413.7 905.326 12413.7 971.882 12437.4 1005.16 12484.6 1005.16Z" fill="#D9E1E2" transform="matrix(1.0003 0 0 1 1965 243)"/><path d="M13247.5 320.067C13271.1 320.067 13294.2 323.685 13317 330.919L13294.5 517.566C13281 512.742 13263.4 510.332 13241.7 510.332 13194.9 510.332 13159 528.9 13133.9 566.035 13108.8 602.69 13096.3 656.225 13096.3 726.638L13096.3 1141.17 12903.9 1141.17 12903.9 335.261 13062.3 335.261 13084 461.137 13090.5 461.137C13111.7 410.497 13134.8 374.325 13160 352.622 13185 330.919 13214.2 320.067 13247.5 320.067Z" fill="#D9E1E2" transform="matrix(1.0003 0 0 1 1965 243)"/><path d="M13570.5 1155.64C13496.3 1155.64 13437.7 1118.98 13394.7 1045.67 13351.8 972.365 13330.4 870.361 13330.4 739.66 13330.4 608.478 13351.4 505.75 13393.3 431.478 13435.3 357.204 13493.2 320.067 13566.9 320.067 13603.6 320.067 13635.2 329.231 13661.7 347.559 13688.7 365.403 13713.5 395.786 13736.2 438.711L13747.8 438.711C13742 365.403 13739.1 314.039 13739.1 284.621L13739.1 15.5022 13931.5 15.5022 13931.5 1141.17 13788.3 1141.17 13755.8 1036.27 13749.2 1036.27C13708.2 1115.84 13648.7 1155.64 13570.5 1155.64ZM13632.8 992.862C13668.5 992.862 13694.5 976.704 13710.9 944.393 13727.3 911.597 13736.2 852.273 13737.6 766.428L13737.6 741.108C13737.6 647.544 13729.2 581.71 13712.3 543.609 13696 505.509 13668.8 486.457 13630.6 486.457 13594.9 486.457 13568.8 508.403 13552.5 552.291 13536.5 595.696 13528.6 659.118 13528.6 742.553 13528.6 825.989 13536.8 888.687 13553.2 930.646 13569.5 972.125 13596.1 992.862 13632.8 992.862Z" fill="#D9E1E2" transform="matrix(1.0003 0 0 1 1965 243)"/><path d="M14481.8 905.326C14481.8 983.939 14458.6 1045.43 14412.3 1089.8 14366.5 1133.69 14298.8 1155.64 14209.1 1155.64 14129.5 1155.64 14063.6 1139.96 14011.5 1108.61L14011.5 941.498C14038.1 959.824 14068.9 975.018 14104.1 987.074 14139.8 999.132 14171.1 1005.16 14198.2 1005.16 14228.1 1005.16 14250.7 997.926 14266.1 983.458 14282 968.507 14290.1 948.975 14290.1 924.86 14290.1 900.263 14281.8 878.801 14265.4 860.474 14249 842.147 14218.9 819.721 14175 793.194 14116.7 758.469 14074.7 721.575 14049.2 682.509 14024.1 642.962 14011.5 596.42 14011.5 542.887 14011.5 474.4 14035 420.142 14081.7 380.114 14129 340.083 14193.5 320.067 14275.5 320.067 14346.9 320.067 14414.2 338.878 14477.5 376.497L14414.5 514.673C14362.8 486.7 14317.6 472.713 14278.4 472.713 14253.9 472.713 14235.3 479.225 14222.8 492.246 14210.7 505.266 14204.7 521.184 14204.7 539.993 14204.7 561.696 14212.2 580.986 14227.1 597.866 14242.5 614.746 14271 635.727 14312.5 660.806 14362.6 691.189 14397.9 716.993 14418.1 738.215 14438.3 759.434 14454 783.549 14465.2 810.557 14476.2 837.566 14481.8 869.156 14481.8 905.326Z" fill="#D9E1E2" transform="matrix(1.0003 0 0 1 1965 243)"/></g></g></g></g></g><g clip-path="url(#clip6)"><g clip-path="url(#clip7)"><g clip-path="url(#clip8)"><g clip-path="url(#clip9)"><g clip-path="url(#clip10)"><g clip-path="url(#clip11)"><g clip-path="url(#clip12)"><path d="M89.4695 37.6791C87.6587 37.6791 86.1907 39.1471 86.1907 40.958 86.1907 67.9403 64.3173 89.8136 37.3351 89.8136 35.5241 89.8136 34.0561 91.2814 34.0561 93.0927 34.0561 94.903 35.5241 96.3719 37.3351 96.3719 67.939 96.3719 92.7484 71.562 92.7484 40.958 92.7484 39.1471 91.2804 37.6791 89.4695 37.6791Z" fill="#00A3E0" transform="matrix(1 0 0 1.00414 2372.14 1685.04)"/><path d="M69.6794 58.6924C72.8325 53.5485 75.882 46.6898 75.2821 37.088 74.0393 17.198 56.0243 2.10911 39.0132 3.74433 32.3537 4.3845 25.5157 9.81278 26.1232 19.5359 26.3873 23.7612 28.4553 26.2549 31.8163 28.1722 35.0152 29.9972 39.1251 31.1532 43.7842 32.4636 49.4121 34.0465 55.9403 35.8245 60.9576 39.5221 66.971 43.9536 71.0817 49.0905 69.6794 58.6924Z" fill="#B9D9EB" transform="matrix(1 0 0 1.00414 2372.14 1685.04)"/><path d="M5.67883 23.9117C2.5256 29.0556-0.523892 35.9143 0.0760728 45.5162 1.31887 65.4061 19.3339 80.495 36.3449 78.8598 43.0044 78.2196 49.8424 72.7914 49.2349 63.0682 48.971 58.843 46.9028 56.3492 43.542 54.4319 40.343 52.607 36.233 51.4509 31.5739 50.1406 25.9461 48.5576 19.4179 46.7796 14.4006 43.0822 8.38718 38.6507 4.27646 33.5136 5.67883 23.9117Z" fill="#00A3E0" transform="matrix(1 0 0 1.00414 2372.14 1685.04)"/><path d="M525.333 44.2005 525.333 77.532 538.376 77.532 538.376 41.3021C538.376 34.6252 537.072 29.5811 534.462 26.1596 531.852 22.7048 527.916 21.0134 522.797 21.0134 517.244 21.0134 512.793 24.2607 510.117 29.7085L509.392 29.7085C509.589 26.8958 509.769 25.2844 509.899 24.1078 510.034 22.8944 510.117 22.1433 510.117 21.0134L510.117 0 497.074 0 497.074 77.532 510.841 77.532 510.841 50.7218C510.841 44.7092 511.043 40.2608 512.281 37.0718 513.518 33.8496 515.676 32.2385 518.754 32.2385 522.869 32.2385 525.333 36.0619 525.333 44.2005ZM335.998 73.5161C339.523 69.8727 341.285 64.6248 341.285 57.7726 341.285 53.494 340.32 49.6835 338.388 46.3409 336.49 42.9983 333.119 39.7227 328.273 36.5138 324.681 34.174 322.156 32.0849 320.698 30.2466 319.275 28.4081 318.563 26.2522 318.563 23.7787 318.563 21.2717 319.156 19.2996 320.344 17.8623 321.564 16.3916 323.291 15.6562 325.529 15.6562 327.562 15.6562 329.458 16.0239 331.22 16.7592 333.016 17.4947 334.728 18.3303 336.355 19.2662L340.929 8.33601C335.677 5.19399 330.205 3.62299 324.511 3.62299 318.546 3.62299 313.785 5.46139 310.228 9.13822 306.703 12.815 304.941 17.7955 304.941 24.0796 304.941 27.3552 305.382 30.2298 306.263 32.7033 307.178 35.1768 308.448 37.4164 310.075 39.4219 311.735 41.394 314.159 43.4664 317.343 45.639 321.004 48.1125 323.63 50.3688 325.223 52.4077 326.816 54.4133 327.612 56.6362 327.612 59.0761 327.612 61.5496 326.934 63.5051 325.579 64.9424 324.258 66.3797 322.275 67.0983 319.631 67.0983 314.989 67.0983 309.889 65.31 304.331 61.7336L304.331 75.2208C308.872 77.7277 314.378 78.9812 320.852 78.9812 327.459 78.9812 332.509 77.1595 335.998 73.5161ZM350.233 71.5533C354.299 76.5052 359.844 78.9812 366.867 78.9812 372.882 78.9812 378.04 77.6929 382.341 75.1166L382.341 64.1253C377.772 66.8354 373.303 68.1906 368.933 68.1906 365.506 68.1906 362.817 66.986 360.869 64.577 358.919 62.1345 358.053 58.6056 357.951 53.6203L384.762 53.6203 384.762 46.3083C384.762 38.3117 382.998 32.105 379.469 27.6884 375.94 23.2384 371.119 21.0134 365.002 21.0134 358.448 21.0134 353.341 23.6064 349.678 28.7927 346.016 33.9787 344.184 41.1892 344.184 50.4239 344.184 59.5247 346.199 66.5677 350.233 71.5533ZM360.163 34.3634C361.407 32.3226 362.986 31.302 364.902 31.302 366.951 31.302 368.564 32.3559 369.741 34.4639 370.915 36.5718 371.652 40.1185 371.718 44.2005L357.951 44.2005C358.153 39.9511 358.919 36.371 360.163 34.3634ZM417.369 77.532 415.195 70.286 414.47 70.286C412.473 73.5593 410.549 75.8914 408.418 77.1274 406.285 78.3632 403.592 78.9812 400.343 78.9812 396.178 78.9812 392.894 77.4447 390.49 74.3718 388.121 71.2988 386.935 67.0236 386.935 61.5457 386.935 55.6671 388.56 51.3082 391.811 48.4691 395.094 45.5966 399.987 44.0101 406.488 43.7095L414.003 43.4089 414.003 39.4007C414.003 34.1901 411.718 31.5848 407.147 31.5848 403.762 31.5848 399.868 32.8875 395.467 35.4928L390.794 26.2741C396.414 22.7669 402.433 21.0134 409.035 21.0134 415.028 21.0134 419.676 22.7168 422.79 26.1238 425.939 29.4972 427.512 34.2903 427.512 40.503L427.512 77.532 417.369 77.532ZM405.878 68.56C408.35 68.56 410.313 67.4744 411.768 65.3034 413.258 63.0989 414.003 60.1763 414.003 56.5356L414.003 51.826 409.84 52.0264C406.759 52.1934 404.49 53.0619 403.034 54.6316 401.613 56.2015 400.901 58.5396 400.901 61.6459 400.901 66.2554 402.56 68.56 405.878 68.56ZM460.844 22.1002C459.294 21.6003 456.985 21.0134 455.369 21.0134 453.092 21.0134 451.096 21.7631 449.38 23.2629 447.664 24.7627 446.355 26.2092 444.903 29.7085L444.178 29.7085 442.005 22.4625 431.86 22.4625 431.86 77.532 445.574 77.532 445.574 48.548C445.574 43.6822 445.882 40.5432 447.598 38.0103 449.314 35.444 451.772 34.1609 454.972 34.1609 456.458 34.1609 457.748 34.4474 458.67 34.7807L460.844 22.1002ZM481.133 78.9812C474.529 78.9812 469.473 76.7755 466.022 71.9239 462.57 67.0723 460.844 59.9455 460.844 50.5436 460.844 40.7066 462.47 33.3624 465.722 28.5108 469.009 23.6592 473.912 21.0134 480.748 21.0134 482.805 21.0134 485.121 21.5345 487.378 22.1367 489.634 22.739 492.383 23.4987 494.176 24.6363L489.667 35.1356C486.914 33.4961 484.474 32.6765 482.35 32.6765 479.528 32.6765 477.488 34.1654 476.226 37.1431 474.998 40.0876 474.385 44.5208 474.385 50.4431 474.385 56.2316 474.998 60.5645 476.226 63.442 477.455 66.2861 479.462 67.708 482.25 67.708 485.569 67.708 489.036 66.5369 492.654 64.1949L492.654 75.939C489.17 78.1138 485.348 78.9812 481.133 78.9812Z" fill="#B9D9EB" fill-rule="evenodd" transform="matrix(1 0 0 1.00414 2372.14 1685.04)"/><path d="M156.19 69.2172C160.754 62.7079 163.035 53.3944 163.035 41.277 163.035 29.1597 160.769 19.863 156.241 13.387 151.711 6.87766 145.2 3.62299 136.713 3.62299 128.123 3.62299 121.546 6.86097 116.984 13.3369 112.42 19.7795 110.139 29.0595 110.139 41.1768 110.139 53.3944 112.42 62.7579 116.984 69.2672 121.546 75.7432 128.089 78.9812 136.612 78.9812 145.101 78.9812 151.626 75.7266 156.19 69.2172ZM127.301 60.3544C125.187 55.9814 124.13 49.6223 124.13 41.277 124.13 32.8983 125.187 26.5393 127.301 22.1996 129.415 17.8267 132.552 15.6403 136.713 15.6403 144.899 15.6403 148.993 24.1858 148.993 41.277 148.993 58.3682 144.866 66.9138 136.612 66.9138 132.519 66.9138 129.415 64.7273 127.301 60.3544ZM185.767 77.5289C187.626 78.6025 189.627 78.9812 192.018 78.9812 197.134 78.9812 201.293 76.5559 204.249 71.3891 207.206 66.2225 208.684 59.0929 208.684 50.0009 208.684 40.7744 207.255 33.6451 204.399 28.6125 201.542 23.5464 197.591 21.0134 192.541 21.0134 187.294 21.0134 183.181 24.1391 180.424 29.7085L179.7 29.7085 177.527 22.4625 167.382 22.4625 167.382 102.893 180.424 102.893 180.424 78.9812C180.424 78.0417 180.232 74.8487 179.7 70.286L180.424 70.286C181.512 73.5467 183.939 76.4218 185.767 77.5289ZM182.427 36.0606C183.591 33.6115 185.467 32.3869 188.057 32.3869 190.482 32.3869 192.259 33.8296 193.39 36.7149 194.551 39.6003 195.133 43.9618 195.133 49.7996 195.133 61.6763 192.808 67.6146 188.157 67.6146 185.467 67.6146 183.541 66.2057 182.378 63.3874 181.217 60.5691 180.635 56.0734 180.635 49.9001L180.635 48.1388C180.701 42.5023 181.298 38.4763 182.427 36.0606ZM234.265 78.9812C227.243 78.9812 221.698 76.5052 217.631 71.5533 213.598 66.5677 211.582 59.5247 211.582 50.4239 211.582 41.1892 213.415 33.9787 217.076 28.7927 220.74 23.6064 225.847 21.0134 232.401 21.0134 238.516 21.0134 243.339 23.2384 246.867 27.6884 250.396 32.105 252.16 38.3117 252.16 46.3083L252.16 53.6203 225.35 53.6203C225.451 58.6056 226.318 62.1345 228.267 64.577 230.216 66.986 232.905 68.1906 236.332 68.1906 240.701 68.1906 245.17 66.8354 249.74 64.1253L249.74 75.1166C245.438 77.6929 240.281 78.9812 234.265 78.9812ZM232.301 31.302C230.385 31.302 228.805 32.3226 227.562 34.3634 226.318 36.371 225.551 39.9511 225.35 44.2005L239.117 44.2005C239.051 40.1185 238.314 36.5718 237.139 34.4639 235.962 32.3559 234.349 31.302 232.301 31.302ZM284.767 44.2005 284.767 77.532 297.81 77.532 297.81 41.5906C297.81 34.866 296.539 29.7554 293.995 26.2586 291.486 22.7618 287.689 21.0134 282.603 21.0134 279.593 21.0134 276.966 21.753 274.724 23.2325 272.483 24.6782 270.755 27.1195 269.55 29.7085L268.826 29.7085 267.014 22.4625 256.508 22.4625 256.508 77.532 270.275 77.532 270.275 51.0841C270.275 44.2587 270.526 39.6068 271.865 36.749 273.203 33.8573 275.309 32.4115 278.188 32.4115 280.362 32.4115 281.935 33.4538 282.905 35.5385 283.875 37.6231 284.767 40.1321 284.767 44.2005Z" fill="#00A3E0" fill-rule="evenodd" transform="matrix(1 0 0 1.00414 2372.14 1685.04)"/><path d="M606.882 40.9886C606.882 52.8719 604.452 61.9648 599.594 68.2676 594.769 74.5373 587.81 77.6722 578.716 77.6722L561.089 77.6722 561.089 5.68369 580.342 5.68369C588.712 5.68369 595.228 8.78579 599.89 14.99 604.55 21.1614 606.882 29.8277 606.882 40.9886ZM593.144 41.3825C593.144 25.2976 588.712 17.255 579.849 17.255L574.481 17.255 574.481 65.9531 578.814 65.9531C583.707 65.9531 587.317 63.9179 589.648 59.8474 591.979 55.7441 593.144 49.5892 593.144 41.3825Z" fill="#D9E1E2" transform="matrix(1 0 0 1.00414 2372.14 1685.04)"/><path d="M640.491 77.6722 637.88 70.1879 637.585 70.1879C635.649 73.4048 633.646 75.6206 631.578 76.8352 629.511 78.0497 626.9 78.6571 623.75 78.6571 619.712 78.6571 616.527 77.1471 614.196 74.127 611.9 71.107 610.75 66.9051 610.75 61.5216 610.75 55.7441 612.326 51.4603 615.478 48.6701 618.662 45.8469 623.405 44.2878 629.708 43.9923L636.996 43.6969 636.996 39.7577C636.996 34.6367 634.779 32.0762 630.348 32.0762 627.065 32.0762 623.29 33.3564 619.023 35.9168L614.492 26.8568C619.941 23.41 625.867 21.6866 632.268 21.6866 638.077 21.6866 642.494 23.3608 645.513 26.7091 648.566 30.0246 650.093 34.7352 650.093 40.8409L650.093 77.6722 640.491 77.6722ZM629.116 68.4152C631.513 68.4152 633.417 67.3483 634.829 65.2146 636.273 63.0481 636.996 60.1757 636.996 56.5976L636.996 51.9691 632.958 52.1661C629.969 52.3302 627.771 53.1837 626.359 54.7266 624.98 56.2694 624.292 58.5672 624.292 61.6201 624.292 66.1502 625.899 68.4152 629.116 68.4152Z" fill="#D9E1E2" transform="matrix(1 0 0 1.00414 2372.14 1685.04)"/><path d="M687.1 61.6201C687.1 66.9708 685.523 71.1562 682.372 74.1762 679.254 77.1634 674.641 78.6571 668.535 78.6571 663.12 78.6571 658.639 77.5902 655.093 75.4564L655.093 64.0822C656.899 65.3294 659 66.3636 661.397 67.1842 663.825 68.0048 665.959 68.4152 667.798 68.4152 669.832 68.4152 671.376 67.9228 672.425 66.9381 673.509 65.9204 674.052 64.5909 674.052 62.9496 674.052 61.2755 673.493 59.8146 672.376 58.5672 671.26 57.3199 669.209 55.7935 666.222 53.9879 662.249 51.6244 659.394 49.1132 657.654 46.4542 655.946 43.7625 655.093 40.5947 655.093 36.951 655.093 32.2895 656.685 28.5965 659.869 25.8721 663.087 23.1474 667.485 21.785 673.066 21.785 677.925 21.785 682.503 23.0654 686.804 25.6258L682.52 35.0307C679.008 33.1268 675.922 32.1747 673.263 32.1747 671.589 32.1747 670.326 32.6179 669.472 33.5042 668.651 34.3904 668.24 35.4738 668.24 36.7541 668.24 38.2313 668.749 39.5442 669.768 40.6931 670.818 41.842 672.755 43.2701 675.577 44.9771 678.991 47.0451 681.387 48.8014 682.767 50.2458 684.145 51.6901 685.211 53.3314 685.967 55.1697 686.722 57.008 687.1 59.1582 687.1 61.6201Z" fill="#D9E1E2" transform="matrix(1 0 0 1.00414 2372.14 1685.04)"/><path d="M719.675 77.6722 719.675 44.9771C719.675 36.9345 717.656 32.9132 713.619 32.9132 710.598 32.9132 708.481 34.5053 707.265 37.6895 706.051 40.8409 705.444 45.3873 705.444 51.3289L705.444 77.6722 692.346 77.6722 692.346 1.05515 705.444 1.05515 705.444 18.092C705.444 20.2915 705.247 24.2143 704.854 29.8604L705.542 29.8604C708.168 24.4769 712.207 21.785 717.656 21.785 722.678 21.785 726.47 23.492 729.029 26.9061 731.59 30.2872 732.872 35.2768 732.872 41.8749L732.872 77.6722 719.675 77.6722Z" fill="#D9E1E2" transform="matrix(1 0 0 1.00414 2372.14 1685.04)"/><path d="M765.2 21.785C770.189 21.785 774.112 24.2634 776.968 29.2203 779.823 34.1771 781.251 41.1528 781.251 50.1472 781.251 59.2402 779.808 66.2651 776.918 71.2219 774.063 76.1787 770.091 78.6571 765.002 78.6571 762.541 78.6571 760.358 78.1318 758.454 77.0814 756.583 75.9981 754.81 74.1106 753.135 71.4188L752.299 71.4188 750.083 77.6722 740.432 77.6722 740.432 1.05515 753.53 1.05515 753.53 18.9783C753.53 19.7334 753.513 20.5213 753.48 21.342 753.448 22.1625 753.234 25.035 752.841 29.9589L753.53 29.9589C755.138 26.9389 756.879 24.8215 758.749 23.6069 760.62 22.3924 762.771 21.785 765.2 21.785ZM760.669 32.9132C758.174 32.9132 756.37 34.0787 755.253 36.4093 754.17 38.7401 753.596 42.8433 753.53 48.7193L753.53 50.0487C753.53 56.4171 754.087 60.898 755.203 63.4913 756.353 66.0845 758.208 67.3812 760.768 67.3812 765.496 67.3812 767.859 61.5708 767.859 49.9503 767.859 38.5923 765.462 32.9132 760.669 32.9132Z" fill="#D9E1E2" transform="matrix(1 0 0 1.00414 2372.14 1685.04)"/><path d="M828.057 50.1472C828.057 59.1417 826.153 66.1502 822.346 71.1726 818.537 76.1623 813.318 78.6571 806.688 78.6571 802.485 78.6571 798.777 77.5082 795.559 75.2104 792.342 72.9125 789.864 69.6134 788.123 65.3131 786.385 60.98 785.514 55.9247 785.514 50.1472 785.514 41.2512 787.402 34.3084 791.177 29.3188 794.951 24.2963 800.188 21.785 806.885 21.785 813.35 21.785 818.488 24.3456 822.297 29.4665 826.137 34.5546 828.057 41.4482 828.057 50.1472ZM798.906 50.1472C798.906 55.8591 799.531 60.1757 800.778 63.0972 802.025 66.0188 804.028 67.4797 806.786 67.4797 812.038 67.4797 814.664 61.7021 814.664 50.1472 814.664 44.4027 814.024 40.1187 812.744 37.2957 811.496 34.4397 809.511 33.0118 806.786 33.0118 804.028 33.0118 802.025 34.4397 800.778 37.2957 799.531 40.1187 798.906 44.4027 798.906 50.1472Z" fill="#D9E1E2" transform="matrix(1 0 0 1.00414 2372.14 1685.04)"/><path d="M861.125 77.6722 858.515 70.1879 858.22 70.1879C856.283 73.4048 854.281 75.6206 852.212 76.8352 850.144 78.0497 847.534 78.6571 844.382 78.6571 840.345 78.6571 837.161 77.1471 834.831 74.127 832.533 71.107 831.383 66.9051 831.383 61.5216 831.383 55.7441 832.96 51.4603 836.111 48.6701 839.294 45.8469 844.039 44.2878 850.341 43.9923L857.628 43.6969 857.628 39.7577C857.628 34.6367 855.413 32.0762 850.981 32.0762 847.698 32.0762 843.923 33.3564 839.657 35.9168L835.126 26.8568C840.575 23.41 846.5 21.6866 852.902 21.6866 858.712 21.6866 863.127 23.3608 866.147 26.7091 869.2 30.0246 870.726 34.7352 870.726 40.8409L870.726 77.6722 861.125 77.6722ZM849.75 68.4152C852.147 68.4152 854.05 67.3483 855.462 65.2146 856.906 63.0481 857.628 60.1757 857.628 56.5976L857.628 51.9691 853.59 52.1661C850.604 52.3302 848.404 53.1837 846.992 54.7266 845.614 56.2694 844.925 58.5672 844.925 61.6201 844.925 66.1502 846.533 68.4152 849.75 68.4152Z" fill="#D9E1E2" transform="matrix(1 0 0 1.00414 2372.14 1685.04)"/><path d="M901.676 21.785C903.285 21.785 904.86 22.0313 906.404 22.5237L904.878 35.2277C903.958 34.8993 902.761 34.7352 901.282 34.7352 898.098 34.7352 895.654 35.999 893.947 38.5266 892.239 41.0215 891.386 44.6652 891.386 49.4578L891.386 77.6722 878.288 77.6722 878.288 22.8192 889.071 22.8192 890.549 31.3868 890.992 31.3868C892.436 27.9401 894.011 25.478 895.719 24.0008 897.426 22.5237 899.411 21.785 901.676 21.785Z" fill="#D9E1E2" transform="matrix(1 0 0 1.00414 2372.14 1685.04)"/><path d="M923.669 78.6571C918.609 78.6571 914.621 76.1623 911.696 71.1726 908.78 66.1831 907.318 59.2402 907.318 50.3442 907.318 41.4154 908.744 34.4233 911.605 29.3681 914.458 24.3127 918.4 21.785 923.414 21.785 925.912 21.785 928.065 22.4088 929.873 23.6563 931.708 24.8708 933.397 26.9389 934.941 29.8604L935.732 29.8604C935.332 24.8708 935.141 21.3748 935.141 19.3724L935.141 1.05515 948.24 1.05515 948.24 77.6722 938.484 77.6722 936.268 70.5325 935.823 70.5325C933.034 75.9489 928.983 78.6571 923.669 78.6571ZM927.902 67.5781C930.327 67.5781 932.098 66.4784 933.216 64.2791 934.333 62.0469 934.941 58.0092 935.041 52.1661L935.041 50.4427C935.041 44.0744 934.46 39.5935 933.315 37.0002 932.198 34.4069 930.345 33.1102 927.756 33.1102 925.322 33.1102 923.551 34.6039 922.433 37.5911 921.352 40.5454 920.807 44.8622 920.807 50.5412 920.807 56.2201 921.37 60.4876 922.488 63.3435 923.596 66.1666 925.404 67.5781 927.902 67.5781Z" fill="#D9E1E2" transform="matrix(1 0 0 1.00414 2372.14 1685.04)"/><path d="M985.683 61.6201C985.683 66.9708 984.112 71.1562 980.96 74.1762 977.844 77.1634 973.229 78.6571 967.125 78.6571 961.702 78.6571 957.224 77.5902 953.681 75.4564L953.681 64.0822C955.489 65.3294 957.587 66.3636 959.985 67.1842 962.411 68.0048 964.545 68.4152 966.38 68.4152 968.415 68.4152 969.959 67.9228 971.013 66.9381 972.094 65.9204 972.639 64.5909 972.639 62.9496 972.639 61.2755 972.076 59.8146 970.958 58.5672 969.85 57.3199 967.797 55.7935 964.809 53.9879 960.839 51.6244 957.978 49.1132 956.243 46.4542 954.535 43.7625 953.681 40.5947 953.681 36.951 953.681 32.2895 955.271 28.5965 958.459 25.8721 961.675 23.1474 966.071 21.785 971.649 21.785 976.509 21.785 981.087 23.0654 985.393 25.6258L981.105 35.0307C977.589 33.1268 974.51 32.1747 971.849 32.1747 970.177 32.1747 968.915 32.6179 968.061 33.5042 967.234 34.3904 966.825 35.4738 966.825 36.7541 966.825 38.2313 967.334 39.5442 968.351 40.6931 969.405 41.842 971.34 43.2701 974.165 44.9771 977.58 47.0451 979.969 48.8014 981.35 50.2458 982.731 51.6901 983.794 53.3314 984.557 55.1697 985.311 57.008 985.683 59.1582 985.683 61.6201Z" fill="#D9E1E2" transform="matrix(1 0 0 1.00414 2372.14 1685.04)"/></g></g></g></g></g></g></g></g></svg>